<svg width="250" height="223" viewBox="0 0 250 223" fill="none" xmlns="http://www.w3.org/2000/svg">
<path d="M249.551 196.32H-21.8239V196.469H249.551V196.32Z" fill="#EBEBEB"/>
<path d="M106.808 169.669H2.00829C1.18729 169.667 0.40042 169.307 -0.179601 168.667C-0.759622 168.027 -1.08539 167.16 -1.08539 166.257V4.06162C-1.07824 3.1629 -0.749321 2.30359 -0.170071 1.67032C0.409179 1.03706 1.19197 0.680983 2.00829 0.679443H106.808C107.63 0.679443 108.418 1.03893 108.999 1.67881C109.58 2.31869 109.907 3.18656 109.907 4.09149V166.257C109.907 167.161 109.58 168.029 108.999 168.669C108.418 169.309 107.63 169.669 106.808 169.669ZM2.00829 0.798955C1.22328 0.800538 0.470919 1.14498 -0.0836556 1.75668C-0.63823 2.36837 -0.949702 3.19734 -0.949701 4.06162V166.257C-0.949702 167.121 -0.63823 167.95 -0.0836556 168.561C0.470919 169.173 1.22328 169.518 2.00829 169.519H106.808C107.593 169.518 108.346 169.173 108.902 168.562C109.457 167.95 109.77 167.121 109.771 166.257V4.06162C109.77 3.19679 109.457 2.36784 108.902 1.75631C108.346 1.14479 107.593 0.800535 106.808 0.798955H2.00829Z" fill="#EBEBEB"/>
<path d="M224.21 169.669H119.405C118.584 169.667 117.796 169.307 117.215 168.667C116.634 168.028 116.307 167.161 116.306 166.257V4.06162C116.315 3.16236 116.645 2.30305 117.225 1.66995C117.805 1.03685 118.588 0.680966 119.405 0.679443H224.21C225.026 0.682553 225.807 1.03932 226.385 1.67242C226.963 2.30552 227.291 3.16394 227.298 4.06162V166.257C227.298 167.159 226.973 168.025 226.395 168.665C225.816 169.305 225.03 169.665 224.21 169.669ZM119.405 0.798955C118.62 0.800535 117.867 1.14479 117.311 1.75631C116.756 2.36784 116.443 3.19679 116.442 4.06162V166.257C116.443 167.121 116.756 167.95 117.311 168.562C117.867 169.173 118.62 169.518 119.405 169.519H224.21C224.996 169.518 225.749 169.173 226.304 168.562C226.859 167.95 227.172 167.121 227.174 166.257V4.06162C227.172 3.19679 226.859 2.36784 226.304 1.75631C225.749 1.14479 224.996 0.800535 224.21 0.798955H119.405Z" fill="#EBEBEB"/>
<path d="M222.359 202.008H205.225V202.158H222.359V202.008Z" fill="#EBEBEB"/>
<path d="M160.182 200.389H142.049V200.538H160.182V200.389Z" fill="#EBEBEB"/>
<path d="M227.309 207.56H193.425V207.709H227.309V207.56Z" fill="#EBEBEB"/>
<path d="M17.0859 206.556H6.6488V206.705H17.0859V206.556Z" fill="#EBEBEB"/>
<path d="M38.3617 206.556H21.9218V206.705H38.3617V206.556Z" fill="#EBEBEB"/>
<path d="M110.683 204.034H81.0707V204.183H110.683V204.034Z" fill="#EBEBEB"/>
<path d="M142.613 86.154L211.559 86.154V23.536L142.613 23.536V86.154Z" fill="#F0F0F0"/>
<path d="M132.621 86.154L209.643 86.154V23.536L132.621 23.536V86.154Z" fill="#F5F5F5"/>
<path d="M137.104 28.4778V81.2242H205.165V28.4778L137.104 28.4778Z" fill="white"/>
<path d="M137.099 28.4778V45.299L205.16 45.299V28.4778L137.099 28.4778Z" fill="#FAFAFA"/>
<path d="M177.906 76.9718C186.934 72.8547 191.221 61.4593 187.481 51.5195C183.742 41.5798 173.392 36.8597 164.363 40.9768C155.335 45.094 151.048 56.4894 154.788 66.4291C158.527 76.3689 168.877 81.089 177.906 76.9718Z" fill="#E6E6E6"/>
<path d="M137.099 58.9771V81.2242H205.16V58.9771H137.099Z" fill="#F0F0F0"/>
<path d="M20.3804 126.268L101.256 126.268L101.256 13.9811L20.3804 13.9811L20.3804 126.268Z" fill="#E6E6E6"/>
<path d="M16.3477 126.268L99.3722 126.268L99.3722 13.9811L16.3477 13.9811L16.3477 126.268Z" fill="#F0F0F0"/>
<path d="M93.7277 121.219V88.1379H21.9924V121.219H93.7277Z" fill="#F5F5F5"/>
<path d="M91.8497 86.3333V20.853L23.8649 20.853V86.3333H91.8497Z" fill="#FAFAFA"/>
<path d="M24.5813 86.3333L24.5813 20.853H23.8703L23.8703 86.3333H24.5813Z" fill="#E6E6E6"/>
<path d="M81.0001 86.3273L57.244 20.847H42.4269L66.183 86.3273H81.0001Z" fill="white"/>
<path d="M62.9971 86.3273L39.241 20.847H33.4661L57.2223 86.3273H62.9971Z" fill="white"/>
<path d="M23.3438 121.213L23.3438 89.1178H21.9924V121.213H23.3438Z" fill="#E6E6E6"/>
<path d="M18.1388 91.1078L97.5811 91.1078V85.1561L18.1388 85.1561V91.1078Z" fill="#F0F0F0"/>
<path d="M122.548 10.2403H-5.81813C-6.20152 10.2388 -6.56872 10.07 -6.83932 9.77093C-7.10991 9.47189 -7.26184 9.06698 -7.26184 8.64486C-7.26041 8.22378 -7.10785 7.8204 -6.83741 7.52265C-6.56697 7.2249 -6.20058 7.05693 -5.81813 7.05536H122.548C122.931 7.05536 123.299 7.22263 123.57 7.52055C123.842 7.81847 123.995 8.22275 123.997 8.64486C123.995 9.06752 123.842 9.47243 123.571 9.77129C123.299 10.0702 122.932 10.2388 122.548 10.2403Z" fill="#EBEBEB"/>
<path d="M108.257 2.8067H97.5811V148.079H108.257V2.8067Z" fill="#FAFAFA"/>
<path d="M104.903 2.8067H102.184V148.079H104.903V2.8067Z" fill="#F0F0F0"/>
<path d="M114.938 2.8067H104.262V148.079H114.938V2.8067Z" fill="#FAFAFA"/>
<path d="M111.584 2.8067H108.865V148.079H111.584V2.8067Z" fill="#F0F0F0"/>
<path d="M121.527 2.8067H110.851V148.079H121.527V2.8067Z" fill="#FAFAFA"/>
<path d="M116.811 2.8067H115.448V148.079H116.811V2.8067Z" fill="#F0F0F0"/>
<path d="M7.11559 2.8067H-3.5603V148.079H7.11559V2.8067Z" fill="#FAFAFA"/>
<path d="M3.76141 2.8067H1.04224V148.079H3.76141V2.8067Z" fill="#F0F0F0"/>
<path d="M13.7968 2.8067H3.12091V148.079H13.7968V2.8067Z" fill="#FAFAFA"/>
<path d="M10.4426 2.8067H7.72345V148.079H10.4426V2.8067Z" fill="#F0F0F0"/>
<path d="M20.3859 2.8067H9.70996V148.079H20.3859V2.8067Z" fill="#FAFAFA"/>
<path d="M15.6693 2.8067H14.307V148.079H15.6693V2.8067Z" fill="#F0F0F0"/>
<path d="M76.0177 132.59H51.9033C48.597 132.59 45.9167 135.541 45.9167 139.181V189.729C45.9167 193.369 48.597 196.32 51.9033 196.32H76.0177C79.3239 196.32 82.0042 193.369 82.0042 189.729V139.181C82.0042 135.541 79.3239 132.59 76.0177 132.59Z" fill="#F5F5F5"/>
<path d="M86.8184 132.59H62.7041C59.3978 132.59 56.7175 135.541 56.7175 139.181V189.729C56.7175 193.369 59.3978 196.32 62.7041 196.32H86.8184C90.1247 196.32 92.805 193.369 92.805 189.729V139.181C92.805 135.541 90.1247 132.59 86.8184 132.59Z" fill="#E6E6E6"/>
<path d="M196.123 166.603H64.8913C63.2486 166.603 61.917 168.069 61.917 169.878V193.039C61.917 194.848 63.2486 196.314 64.8913 196.314H196.123C197.765 196.314 199.097 194.848 199.097 193.039V169.878C199.097 168.069 197.765 166.603 196.123 166.603Z" fill="#F0F0F0"/>
<path d="M208.443 111.706H96.9081C95.1811 111.742 93.5261 112.474 92.2567 113.763C90.9873 115.053 90.1917 116.811 90.0206 118.703L87.0626 157.454C86.978 158.347 87.0664 159.248 87.3218 160.1C87.5772 160.952 87.9939 161.735 88.5444 162.396C89.0948 163.057 89.7665 163.583 90.5149 163.937C91.2634 164.291 92.0717 164.467 92.8863 164.452H204.421C206.148 164.416 207.803 163.684 209.073 162.394C210.342 161.104 211.138 159.347 211.309 157.454L214.272 118.703C214.358 117.81 214.27 116.907 214.015 116.055C213.759 115.202 213.342 114.419 212.791 113.757C212.24 113.095 211.567 112.57 210.817 112.217C210.068 111.863 209.259 111.689 208.443 111.706Z" fill="#EBEBEB"/>
<path d="M199.819 111.706H88.2838C86.5568 111.742 84.9019 112.474 83.6324 113.763C82.363 115.053 81.5674 116.811 81.3963 118.703L78.4438 157.454C78.3584 158.346 78.4459 159.248 78.7007 160.1C78.9555 160.952 79.3717 161.734 79.9217 162.396C80.4717 163.057 81.143 163.583 81.8913 163.937C82.6395 164.292 83.4476 164.467 84.262 164.452H195.819C197.547 164.417 199.203 163.686 200.474 162.396C201.744 161.106 202.541 159.348 202.712 157.454L205.664 118.703C205.75 117.809 205.662 116.904 205.405 116.05C205.149 115.196 204.73 114.412 204.177 113.75C203.624 113.088 202.95 112.564 202.198 112.211C201.447 111.858 200.636 111.686 199.819 111.706Z" fill="#FAFAFA"/>
<path d="M137.462 157.484L136.773 157.425L139.731 118.673C139.909 116.684 140.745 114.835 142.08 113.48C143.415 112.125 145.156 111.357 146.971 111.323V112.082C145.33 112.117 143.758 112.813 142.551 114.039C141.345 115.264 140.589 116.935 140.426 118.733L137.462 157.484Z" fill="#F0F0F0"/>
<path d="M205.567 132.59H181.452C178.146 132.59 175.466 135.541 175.466 139.181V189.729C175.466 193.369 178.146 196.32 181.452 196.32H205.567C208.873 196.32 211.553 193.369 211.553 189.729V139.181C211.553 135.541 208.873 132.59 205.567 132.59Z" fill="#F5F5F5"/>
<path d="M179.064 152.853H61.917C59.9566 152.853 58.3674 154.603 58.3674 156.761V165.402C58.3674 167.56 59.9566 169.31 61.917 169.31H179.064C181.025 169.31 182.614 167.56 182.614 165.402V156.761C182.614 154.603 181.025 152.853 179.064 152.853Z" fill="#F5F5F5"/>
<path d="M124.04 169.692C123.007 169.691 122.017 169.238 121.286 168.434C120.556 167.63 120.145 166.539 120.143 165.402V156.761C120.145 155.624 120.556 154.533 121.286 153.729C122.017 152.925 123.007 152.472 124.04 152.471V153.236C123.19 153.236 122.375 153.607 121.774 154.268C121.173 154.929 120.834 155.826 120.833 156.761V165.402C120.834 166.338 121.172 167.235 121.774 167.897C122.375 168.559 123.19 168.932 124.04 168.934V169.692Z" fill="#EBEBEB"/>
<path d="M216.373 132.59H192.259C188.952 132.59 186.272 135.541 186.272 139.181V189.729C186.272 193.369 188.952 196.32 192.259 196.32H216.373C219.679 196.32 222.359 193.369 222.359 189.729V139.181C222.359 135.541 219.679 132.59 216.373 132.59Z" fill="#E6E6E6"/>
<path d="M113.864 223.305C171.983 223.305 219.097 220.277 219.097 216.541C219.097 212.805 171.983 209.777 113.864 209.777C55.7447 209.777 8.62988 212.805 8.62988 216.541C8.62988 220.277 55.7447 223.305 113.864 223.305Z" fill="#F5F5F5"/>
<path d="M78.8508 19.9865C77.3691 23.6077 74.2483 22.0302 73.6187 25.2092C72.9891 28.3882 70.5739 26.6314 69.3093 30.9816C68.0447 35.3318 70.9375 33.5391 70.677 37.244C70.4165 40.9488 73.8955 42.1918 76.6961 41.3372C79.4967 40.4827 83.855 42.7236 86.7695 44.9226C89.6841 47.1216 96.539 44.1816 95.3938 40.0406C94.2486 35.8995 92.4304 34.6625 94.3083 32.4277C96.1863 30.1928 98.1727 24.0619 94.1292 22.4066C89.8469 20.6678 90.8727 18.0863 87.6162 16.6581C84.3597 15.23 80.3325 16.3653 78.8508 19.9865Z" fill="#263238"/>
<path d="M96.5771 55.0571L96.6639 55.5651L96.7725 56.1626C96.8485 56.569 96.9353 56.9872 97.0221 57.3995C97.2013 58.2302 97.4021 59.0667 97.6137 59.9093C98.0425 61.5884 98.5256 63.2676 99.0466 64.9407C99.3017 65.7773 99.5894 66.6079 99.8553 67.4445L100.284 68.6994L100.501 69.2969C100.572 69.5359 100.648 69.7989 100.718 70.0558C100.859 70.6204 100.963 71.1956 101.028 71.7768C101.028 71.9321 101.06 72.0935 101.066 72.2727C101.071 72.452 101.066 72.6193 101.066 72.8165C101.057 73.271 100.99 73.7218 100.865 74.1551C100.685 74.7837 100.335 75.3365 99.8607 75.7386C99.4216 76.1126 98.8852 76.322 98.3302 76.3361C97.96 76.3366 97.5927 76.2658 97.2447 76.127C96.9485 76.0043 96.6648 75.8481 96.398 75.6609C96.1227 75.4774 95.9248 75.1813 95.8474 74.8375C95.7701 74.4936 95.8198 74.13 95.9855 73.8264C96.1359 73.5457 96.3728 73.3337 96.6531 73.2288L97.3695 72.9779C97.5703 72.9002 97.9448 72.8345 97.9123 72.697C97.8797 72.5596 97.7386 72.6193 97.516 72.7508C97.3625 72.8612 97.2298 73.0032 97.1253 73.1691C97.071 73.2468 97.0384 73.2169 97.0004 73.1691L96.8485 72.8583C96.7236 72.6014 96.5825 72.2608 96.4034 71.962C96.322 71.7947 96.2297 71.6393 96.1429 71.4541L95.8661 70.8147L95.3233 69.5419C94.9615 68.6814 94.6214 67.813 94.303 66.9366C93.6462 65.1857 93.0546 63.399 92.5445 61.5586C92.2839 60.6383 92.0614 59.7061 91.8552 58.756C91.752 58.2839 91.6598 57.7999 91.5729 57.3099C91.5295 57.0649 91.4915 56.8199 91.4535 56.563C91.4155 56.306 91.3884 56.079 91.3504 55.7144C91.287 54.9746 91.4837 54.2361 91.8999 53.651C92.3161 53.0659 92.9202 52.6788 93.5879 52.5693C94.2555 52.4598 94.9359 52.6363 95.4889 53.0624C96.042 53.4885 96.4256 54.1318 96.5608 54.8599L96.5771 55.0571Z" fill="#B65B52"/>
<path d="M94.0913 48.5497C96.2623 48.8246 98.9109 58.1584 98.9109 58.1584L93.6354 63.3691C93.6354 63.3691 86.889 54.5612 88.2079 51.7706C89.5593 48.8605 90.9053 48.1434 94.0913 48.5497Z" fill="#263238"/>
<path opacity="0.2" d="M94.1618 50.7129L96.9569 60.1005L93.9881 63.0166L94.1618 50.7129Z" fill="black"/>
<path d="M84.1047 210.739H89.2662L89.6082 197.574H84.4466L84.1047 210.739Z" fill="#B55B52"/>
<path d="M89.4399 210.081H83.6433C83.5435 210.08 83.4467 210.119 83.3708 210.19C83.295 210.262 83.2452 210.361 83.2308 210.47L82.5686 215.519C82.5564 215.647 82.5688 215.776 82.6051 215.898C82.6413 216.021 82.7005 216.133 82.7789 216.228C82.8573 216.324 82.953 216.4 83.0599 216.451C83.1667 216.503 83.2823 216.53 83.399 216.529C85.4181 216.493 86.395 216.362 88.946 216.362C90.5145 216.362 95.0193 216.541 97.1849 216.541C99.3505 216.541 99.4699 214.181 98.5635 213.965C94.52 213.009 91.6706 211.689 90.3028 210.428C90.0612 210.204 89.7556 210.081 89.4399 210.081Z" fill="#263238"/>
<g opacity="0.2">
<path d="M89.6082 197.58L89.4345 204.363H84.2675L84.4466 197.58H89.6082Z" fill="black"/>
</g>
<path d="M96.2189 52.2486C96.3057 56.3479 95.7901 64.9109 93.1469 82.8137H72.1859C72.5061 74.2029 72.5441 68.6217 69.407 52.9358C69.2863 52.3349 69.28 51.7131 69.3883 51.1093C69.4966 50.5056 69.7174 49.9331 70.0365 49.4279C70.3557 48.9227 70.7664 48.4958 71.2428 48.1739C71.7192 47.8521 72.251 47.6423 72.8046 47.5578C74.1832 47.3546 75.768 47.1694 77.3692 47.0798C80.5384 46.8315 83.7197 46.8315 86.889 47.0798C88.9623 47.2889 91.1822 47.6773 92.8592 47.9761C93.7814 48.1511 94.6201 48.6724 95.2326 49.4513C95.8451 50.2303 96.1936 51.2187 96.2189 52.2486Z" fill="#263238"/>
<path d="M78.3135 35.2601C78.916 38.6303 79.513 44.821 77.3691 47.0558C77.3691 47.0558 78.205 50.4798 83.8821 50.4798C90.14 50.4798 86.8727 47.0558 86.8727 47.0558C83.4588 46.1595 83.5456 43.3689 84.1589 40.7516L78.3135 35.2601Z" fill="#B55B52"/>
<path d="M95.8661 51.9857C95.8823 51.0296 95.5886 50.0984 95.0375 49.3592C94.4865 48.6199 93.7142 48.1211 92.8593 47.9522C91.1767 47.6355 88.9677 47.265 86.889 47.0618C83.7199 46.8076 80.5382 46.8076 77.3692 47.0618C76.9621 47.0618 76.5659 47.1156 76.1697 47.1455H76.11C78.5469 48.7111 77.7871 53.5274 77.4614 56.1865C85.0599 60.4292 90.8728 63.3572 90.8728 63.3572C95.1551 62.0964 95.8064 56.6287 95.8661 51.9857Z" fill="#B55B52"/>
<path opacity="0.2" d="M80.6962 37.5009L84.1535 40.7456C84.0063 41.3564 83.9082 41.9803 83.8605 42.61C82.5579 42.4008 80.7614 40.8173 80.604 39.3175C80.5318 38.7109 80.5631 38.0948 80.6962 37.5009Z" fill="black"/>
<path d="M78.9973 25.251C77.5048 30.629 76.7666 32.8937 78.2755 36.6046C80.5333 42.1738 86.8781 43.0104 89.8035 38.212C92.4358 33.8976 94.4332 25.7948 90.4548 21.7732C89.5821 20.8811 88.5168 20.2494 87.36 19.9382C86.2032 19.627 84.9934 19.6466 83.8454 19.995C82.6974 20.3435 81.6493 21.0093 80.8008 21.9292C79.9523 22.8491 79.3315 23.9926 78.9973 25.251Z" fill="#B55B52"/>
<path d="M93.1469 82.8137C93.1469 82.8137 97.2175 126.585 96.881 143.914C96.5282 161.942 90.5308 203.072 90.5308 203.072H83.5511C83.5511 203.072 84.6366 163.036 84.0395 145.318C83.3665 126.017 77.7979 82.8376 77.7979 82.8376L93.1469 82.8137Z" fill="#407BFF"/>
<path opacity="0.3" d="M93.1469 82.8137C93.1469 82.8137 97.2175 126.585 96.881 143.914C96.5282 161.942 90.5308 203.072 90.5308 203.072H83.5511C83.5511 203.072 84.6366 163.036 84.0395 145.318C83.3665 126.017 77.7979 82.8376 77.7979 82.8376L93.1469 82.8137Z" fill="black"/>
<path d="M82.9432 203.329H91.1333L91.7358 200.449L82.5633 200.096L82.9432 203.329Z" fill="#263238"/>
<path opacity="0.2" d="M84.1047 93.7011C89.2554 105.109 85.1359 125.909 83.3177 133.648C82.3842 122.025 80.8102 107.815 79.5836 97.3821C80.3651 91.5081 81.7328 88.4426 84.1047 93.7011Z" fill="black"/>
<path d="M59.9794 210.739H65.141L67.0352 197.574H61.8736L59.9794 210.739Z" fill="#B55B52"/>
<path d="M65.3961 210.081H59.5887C59.4841 210.083 59.3829 210.122 59.2999 210.192C59.2168 210.262 59.1563 210.359 59.1273 210.47L57.8736 215.519C57.8419 215.638 57.8363 215.764 57.8571 215.886C57.8779 216.008 57.9246 216.123 57.9934 216.221C58.0621 216.32 58.151 216.399 58.2528 216.452C58.3546 216.506 58.4664 216.532 58.5791 216.529C60.609 216.493 61.5968 216.362 64.1478 216.362C65.7163 216.362 70.1994 216.541 72.365 216.541C74.5306 216.541 74.9268 214.18 74.0475 213.965C70.118 213.009 67.4205 211.689 66.2048 210.428C65.9848 210.204 65.6958 210.08 65.3961 210.081Z" fill="#263238"/>
<g opacity="0.2">
<path d="M67.0352 197.58L66.0582 204.363H60.8967L61.8736 197.58H67.0352Z" fill="black"/>
</g>
<path d="M87.3503 82.8137C87.3503 82.8137 83.0083 126.585 80.6311 143.914C78.1561 161.942 67.312 203.072 67.312 203.072H60.3322C60.3322 203.072 66.1559 163.036 67.6268 145.318C69.2279 126.017 71.9959 82.8376 71.9959 82.8376L87.3503 82.8137Z" fill="#407BFF"/>
<path opacity="0.3" d="M87.3503 82.8137C87.3503 82.8137 83.0083 126.585 80.6311 143.914C78.1561 161.942 67.312 203.072 67.312 203.072H60.3322C60.3322 203.072 66.1559 163.036 67.6268 145.318C69.2279 126.017 71.9959 82.8376 71.9959 82.8376L87.3503 82.8137Z" fill="black"/>
<path d="M59.6918 203.329H67.8819L68.8208 200.449L59.6918 200.096V203.329Z" fill="#263238"/>
<path d="M67.2143 211.073C67.6698 211.112 68.1245 210.988 68.5114 210.721C68.6015 210.643 68.6749 210.544 68.7265 210.432C68.7781 210.319 68.8066 210.195 68.81 210.069C68.8164 209.998 68.8039 209.926 68.7741 209.863C68.7442 209.799 68.6982 209.746 68.6417 209.711C68.0555 209.328 65.8628 210.488 65.6132 210.619C65.5893 210.631 65.569 210.651 65.5546 210.675C65.5402 210.699 65.5323 210.728 65.5317 210.757C65.5314 210.784 65.54 210.81 65.556 210.831C65.5719 210.852 65.5941 210.866 65.6186 210.87C66.1433 210.994 66.6777 211.062 67.2143 211.073ZM68.2726 209.878C68.3492 209.874 68.4256 209.89 68.4952 209.926C68.5193 209.94 68.5387 209.962 68.5505 209.989C68.5622 210.016 68.5657 210.046 68.5603 210.075C68.5597 210.158 68.5424 210.24 68.5095 210.314C68.4766 210.389 68.4291 210.454 68.3703 210.506C68.0175 210.816 67.1654 210.87 66.0474 210.661C66.7473 210.277 67.4986 210.019 68.2726 209.896V209.878Z" fill="#407BFF"/>
<path d="M65.6403 210.87C65.6562 210.876 65.6733 210.876 65.6892 210.87C66.3405 210.565 67.7028 209.34 67.6865 208.695C67.6865 208.546 67.6051 208.354 67.2686 208.319C67.0147 208.291 66.7613 208.375 66.563 208.552C65.8466 209.149 65.5481 210.673 65.5372 210.739C65.5307 210.76 65.5303 210.783 65.5362 210.804C65.542 210.826 65.5538 210.844 65.5698 210.858C65.5914 210.871 65.6163 210.875 65.6403 210.87ZM67.1383 208.57H67.2143C67.4314 208.57 67.4369 208.689 67.4369 208.725C67.4369 209.107 66.5088 210.075 65.8086 210.518C65.9393 209.854 66.2386 209.245 66.6716 208.761C66.8009 208.637 66.9668 208.569 67.1383 208.57Z" fill="#407BFF"/>
<path d="M86.1835 29.7865C86.0369 30.2167 86.1292 30.6469 86.3843 30.7545C86.6394 30.8621 86.965 30.5932 87.1061 30.1569C87.2473 29.7207 87.1658 29.2965 86.9107 29.1889C86.6557 29.0813 86.3083 29.3622 86.1835 29.7865Z" fill="#263238"/>
<path d="M90.5743 31.5971C90.4277 32.0213 90.5146 32.4575 90.7697 32.5591C91.0248 32.6607 91.3504 32.4038 91.497 31.9616C91.6435 31.5194 91.5512 31.1011 91.2961 30.9935C91.0411 30.886 90.7154 31.1549 90.5743 31.5971Z" fill="#263238"/>
<path d="M91.1766 30.9816L92.2133 31.0712C92.2133 31.0712 91.4589 31.6807 91.1766 30.9816Z" fill="#263238"/>
<path d="M88.9515 31.8122C88.9681 32.9336 89.1233 34.0473 89.4128 35.1226C89.1612 35.1973 88.8979 35.2109 88.6411 35.1624C88.3843 35.1139 88.1402 35.0045 87.9257 34.8418L88.9515 31.8122Z" fill="#A02724"/>
<path d="M85.2282 35.6485C85.4031 35.7554 85.5845 35.8493 85.7709 35.9293C85.7857 35.937 85.8019 35.941 85.8182 35.9411C85.8346 35.9413 85.8508 35.9375 85.8657 35.9301C85.8807 35.9228 85.894 35.9119 85.9048 35.8984C85.9156 35.8849 85.9236 35.8689 85.9283 35.8517C85.9344 35.8352 85.9373 35.8176 85.9371 35.7999C85.9368 35.7821 85.9332 35.7646 85.9266 35.7484C85.92 35.7322 85.9105 35.7177 85.8987 35.7056C85.8869 35.6936 85.8729 35.6843 85.8577 35.6784C85.3674 35.4944 84.924 35.1843 84.5643 34.7737C84.2047 34.3632 83.9392 33.8642 83.7899 33.318C83.7821 33.2835 83.7625 33.2536 83.7352 33.2347C83.7079 33.2158 83.6749 33.2092 83.6433 33.2164C83.6274 33.2199 83.6124 33.227 83.599 33.2371C83.5857 33.2472 83.5744 33.2602 83.5657 33.2753C83.5571 33.2904 83.5513 33.3073 83.5488 33.3249C83.5463 33.3425 83.5471 33.3605 83.5511 33.3778C83.6788 33.8604 83.8929 34.3099 84.181 34.6999C84.469 35.0899 84.8251 35.4124 85.2282 35.6485Z" fill="#263238"/>
<path d="M76.0611 29.5534C76.0652 30.642 76.4547 31.6859 77.1466 32.4635C78.0856 33.4734 79.182 32.7205 79.4533 31.3819C79.6921 30.1868 79.4967 28.2029 78.3027 27.695C78.0407 27.5928 77.7599 27.5636 77.4852 27.61C77.2104 27.6565 76.9505 27.7771 76.7285 27.9612C76.5064 28.1453 76.3293 28.387 76.2128 28.6649C76.0964 28.9427 76.0443 29.248 76.0611 29.5534Z" fill="#B55B52"/>
<path d="M82.7695 18.905C85.0653 19.2695 85.2336 23.4165 84.3272 24.8089C83.4208 26.2012 81.1304 26.6673 81.7328 28.7109C82.6446 31.8003 80.8861 31.8182 81.1467 34.9315C81.3366 37.2141 81.6351 39.6103 78.2049 39.2279C73.0814 38.6304 71.3337 39.7 73.2334 31.7823C74.2646 27.4799 74.9105 24.1874 76.6961 23.9185C78.4818 23.6496 80.2131 18.4987 82.7695 18.905Z" fill="#263238"/>
<path d="M82.5579 21.7971C83.6434 24.3965 86.3571 25.7052 88.8863 25.6932C92.8755 25.6932 95.4699 30.88 93.7711 25.9143C92.0723 20.9486 88.1373 18.905 86.254 18.6361C84.3706 18.3672 81.2987 18.7914 82.5579 21.7971Z" fill="#263238"/>
<path d="M84.7289 28.0715C84.7735 28.0987 84.8246 28.1098 84.8752 28.1034C84.9258 28.097 84.9734 28.0733 85.0111 28.0356C85.8415 27.1871 87.269 27.5098 87.2852 27.5158C87.3486 27.5299 87.4144 27.5158 87.4683 27.4766C87.5222 27.4374 87.5598 27.3763 87.5729 27.3066C87.5859 27.2377 87.5738 27.166 87.5393 27.1068C87.5048 27.0476 87.4506 27.0056 87.3884 26.9899C87.3178 26.9899 85.695 26.6075 84.6746 27.6353C84.6295 27.6865 84.6043 27.7551 84.6043 27.8265C84.6043 27.8979 84.6295 27.9664 84.6746 28.0177C84.6889 28.0398 84.7074 28.0581 84.7289 28.0715Z" fill="#263238"/>
<path d="M92.6584 29.894C92.6945 29.9177 92.7358 29.9302 92.7778 29.9302C92.8199 29.9302 92.8611 29.9177 92.8972 29.894C92.9535 29.8578 92.9947 29.7987 93.0119 29.7295C93.0292 29.6602 93.0211 29.5863 92.9895 29.5235C92.8023 29.1484 92.536 28.8283 92.213 28.5901C91.8899 28.352 91.5196 28.2028 91.1333 28.1551C91.0694 28.1519 91.0069 28.1763 90.9592 28.2232C90.9115 28.2702 90.8824 28.3358 90.8782 28.4061C90.8752 28.4771 90.8972 28.5466 90.9397 28.6001C90.9822 28.6536 91.0419 28.6868 91.1062 28.6929C91.4116 28.7345 91.7035 28.856 91.9575 29.0473C92.2116 29.2386 92.4202 29.4941 92.5662 29.7924C92.5867 29.8359 92.6189 29.8714 92.6584 29.894Z" fill="#263238"/>
<path d="M91.383 211.073C91.8235 211.116 92.2641 210.992 92.6313 210.721C92.714 210.64 92.7775 210.539 92.8163 210.426C92.8551 210.312 92.868 210.19 92.8538 210.069C92.8495 209.995 92.8284 209.924 92.7923 209.861C92.7563 209.798 92.7065 209.747 92.6476 209.711C92.0126 209.328 89.9338 210.488 89.7222 210.619C89.7005 210.633 89.6828 210.653 89.6713 210.677C89.6597 210.702 89.6548 210.729 89.657 210.757C89.6622 210.784 89.6741 210.808 89.6913 210.829C89.7085 210.849 89.7305 210.863 89.7547 210.87C90.2906 210.993 90.8357 211.061 91.383 211.073ZM92.3002 209.878C92.3784 209.876 92.4562 209.892 92.5282 209.926C92.5525 209.941 92.5729 209.962 92.5872 209.989C92.6015 210.015 92.6092 210.045 92.6096 210.075C92.6201 210.154 92.6127 210.235 92.5881 210.31C92.5635 210.385 92.5224 210.452 92.4685 210.506C92.1537 210.816 91.307 210.87 90.1618 210.661C90.8299 210.274 91.5531 210.015 92.3002 209.896V209.878Z" fill="#407BFF"/>
<path d="M89.7818 210.87C89.7977 210.876 89.8148 210.876 89.8306 210.87C90.444 210.565 91.6597 209.34 91.5674 208.695C91.5674 208.546 91.448 208.354 91.1061 208.319C90.9853 208.303 90.8629 208.315 90.7468 208.355C90.6308 208.395 90.5239 208.462 90.4331 208.552C89.7818 209.149 89.6624 210.673 89.657 210.739C89.6555 210.762 89.6597 210.786 89.6693 210.807C89.6788 210.828 89.6933 210.845 89.7112 210.858C89.7326 210.872 89.7578 210.876 89.7818 210.87ZM91.0084 208.569H91.0681C91.2906 208.569 91.3069 208.689 91.3069 208.725C91.3666 209.107 90.5416 210.075 89.9121 210.518C89.9604 209.871 90.1899 209.257 90.5688 208.761C90.6878 208.638 90.8451 208.569 91.0084 208.569Z" fill="#407BFF"/>
<path d="M86.7695 29.1769L87.8062 29.2606C87.8062 29.2606 87.0518 29.8701 86.7695 29.1769Z" fill="#263238"/>
<path d="M71.8711 81.4572L71.3283 83.5248C71.2578 83.6861 71.426 83.8474 71.6703 83.8474H93.2392C93.4291 83.8474 93.5865 83.7458 93.5974 83.6144L93.7873 81.5468C93.7873 81.4034 93.6354 81.2839 93.4291 81.2839H72.213C72.1473 81.2782 72.0814 81.2911 72.0215 81.3215C71.9617 81.3518 71.9099 81.3985 71.8711 81.4572Z" fill="white"/>
<path d="M74.7205 84.0686H74.1778C74.0692 84.0686 73.9824 84.0088 73.9878 83.9251L74.2537 81.2421C74.2537 81.1644 74.3623 81.0987 74.4763 81.0987H75.0462C75.1547 81.0987 75.2415 81.1644 75.2361 81.2421L74.9702 83.9251C74.9322 84.0088 74.8345 84.0686 74.7205 84.0686Z" fill="#407BFF"/>
<g opacity="0.3">
<path d="M74.7205 84.0686H74.1778C74.0692 84.0686 73.9824 84.0088 73.9878 83.9251L74.2537 81.2421C74.2537 81.1644 74.3623 81.0987 74.4763 81.0987H75.0462C75.1547 81.0987 75.2415 81.1644 75.2361 81.2421L74.9702 83.9251C74.9322 84.0088 74.8345 84.0686 74.7205 84.0686Z" fill="black"/>
</g>
<path d="M91.6543 84.0686H91.0681C90.9542 84.0686 90.8673 84.0088 90.8782 83.9251L91.1441 81.2421C91.1441 81.1644 91.2472 81.0987 91.3612 81.0987H91.9311C92.0451 81.0987 92.1319 81.1644 92.1211 81.2421L91.8551 83.9251C91.866 84.0088 91.7683 84.0686 91.6543 84.0686Z" fill="#407BFF"/>
<path opacity="0.3" d="M91.6543 84.0686H91.0681C90.9542 84.0686 90.8673 84.0088 90.8782 83.9251L91.1441 81.2421C91.1441 81.1644 91.2472 81.0987 91.3612 81.0987H91.9311C92.0451 81.0987 92.1319 81.1644 92.1211 81.2421L91.8551 83.9251C91.866 84.0088 91.7683 84.0686 91.6543 84.0686Z" fill="black"/>
<path d="M83.1874 84.0686H82.6447C82.5307 84.0686 82.4439 84.0088 82.4547 83.9251L82.7207 81.2421C82.7207 81.1644 82.8292 81.0987 82.9432 81.0987H83.4859C83.5999 81.0987 83.6868 81.1644 83.6813 81.2421L83.4154 83.9251C83.3991 84.0088 83.3014 84.0686 83.1874 84.0686Z" fill="#407BFF"/>
<path opacity="0.3" d="M83.1874 84.0686H82.6447C82.5307 84.0686 82.4439 84.0088 82.4547 83.9251L82.7207 81.2421C82.7207 81.1644 82.8292 81.0987 82.9432 81.0987H83.4859C83.5999 81.0987 83.6868 81.1644 83.6813 81.2421L83.4154 83.9251C83.3991 84.0088 83.3014 84.0686 83.1874 84.0686Z" fill="black"/>
<path d="M90.3028 57.519C90.0586 57.7401 89.7601 57.776 89.619 57.6027C89.4779 57.4294 89.5756 57.1007 89.8198 56.8797C90.064 56.6586 90.3626 56.6167 90.5037 56.796C90.6448 56.9753 90.5254 57.292 90.3028 57.519Z" fill="#263238"/>
<path d="M89.2066 57.6565C88.7505 57.8226 88.2754 57.9172 87.7954 57.9373C87.7982 58.2261 87.8614 58.5103 87.9799 58.768L89.2066 57.6565Z" fill="#FF8B7B"/>
<path d="M95.7412 64.6778C93.4237 66.5063 92.1591 67.7194 90.0098 67.3728C86.7533 66.8469 85.2607 62.5923 86.965 59.9451C88.4955 57.5549 92.0288 54.9854 94.8946 56.8498C97.7603 58.7142 98.0588 62.8552 95.7412 64.6778Z" fill="#FF8B7B"/>
<path d="M83.4697 57.1964L85.0979 55.5471L86.7262 57.8657C86.7262 57.8657 85.4833 59.5269 84.3435 58.9472L83.4697 57.1964Z" fill="#FF8B7B"/>
<path d="M86.6013 54.9795L87.4535 56.8677L86.7153 57.8657L85.0545 55.5412L86.6013 54.9795Z" fill="#FF8B7B"/>
<path d="M88.3056 68.5679L87.9528 68.6575L87.6706 68.7173L87.1278 68.789C86.7664 68.8159 86.4037 68.8159 86.0423 68.789C85.2615 68.7437 84.493 68.5559 83.7682 68.2332C82.9694 67.881 82.2492 67.3429 81.6569 66.6557C81.0971 65.9887 80.6618 65.207 80.376 64.3551C80.0732 63.4815 79.9526 62.5441 80.0232 61.6123C80.1067 60.6803 80.4097 59.7883 80.9025 59.0249C81.3209 58.3827 81.8457 57.8333 82.4493 57.4055C82.7221 57.2144 83.0069 57.0446 83.3014 56.8976C83.6061 56.7482 83.9198 56.6224 84.2404 56.5211C84.4866 56.4381 84.7501 56.4398 84.9954 56.526C85.2408 56.6123 85.4564 56.7789 85.6134 57.0038C85.7703 57.2286 85.8612 57.5008 85.8739 57.784C85.8865 58.0673 85.8203 58.348 85.6841 58.5887L85.3964 59.1026C85.3205 59.234 85.1468 59.4372 85.0328 59.6045C84.9063 59.7751 84.7903 59.9548 84.6854 60.1423C84.5079 60.4399 84.3793 60.7696 84.3055 61.1163C84.2661 61.3174 84.2871 61.5271 84.3652 61.7139C84.441 61.8979 84.5376 62.0706 84.6529 62.2278C84.7624 62.4181 84.916 62.5728 85.0979 62.676C85.2465 62.753 85.4034 62.8092 85.5647 62.8433C85.8004 62.8973 86.0404 62.9253 86.2811 62.9269C86.4222 62.9269 86.5688 62.9269 86.7207 62.9269H86.9378H87.0355C87.3743 62.8287 87.7274 62.8058 88.0742 62.8595C88.4211 62.9132 88.7547 63.0424 89.0558 63.2395C89.3568 63.4367 89.6191 63.6979 89.8275 64.0079C90.0358 64.3179 90.186 64.6705 90.2692 65.0451C90.3525 65.4197 90.3672 65.8087 90.3124 66.1896C90.2576 66.5705 90.1344 66.9356 89.9501 67.2635C89.7658 67.5914 89.524 67.8757 89.2389 68.0996C88.9537 68.3236 88.6309 68.4827 88.2893 68.5679H88.3056Z" fill="#FF8B7B"/>
<path d="M67.7842 65.9984C69.8901 62.8134 74.2972 61.8872 79.2308 63.0704C82.0585 63.7516 92.7344 59.3954 97.5812 59.3297C102.428 59.2639 103.638 64.9646 102.379 68.0181C98.455 77.5313 87.5294 76.5692 84.7505 78.8698C81.9717 81.1704 74.4763 84.3434 70.2157 80.5728C65.9551 76.8022 64.1043 71.5497 67.7842 65.9984Z" fill="#407BFF"/>
<path d="M100.371 66.2314L98.1565 70.2171L98.9272 72.446C98.9764 72.5925 99.0609 72.7214 99.1716 72.819C99.2824 72.9165 99.4151 72.9791 99.5556 73C99.6962 73.0209 99.8392 72.9993 99.9695 72.9375C100.1 72.8757 100.212 72.776 100.295 72.6492L102.433 69.4164C102.524 69.2821 102.576 69.1215 102.584 68.9546C102.591 68.7877 102.554 68.622 102.477 68.4783L100.371 66.2314Z" fill="#B55B52"/>
<path d="M73.5265 56.8498L73.2171 57.794C73.1086 58.1286 73 58.4632 72.8969 58.8038C72.6906 59.485 72.5115 60.1782 72.3216 60.8714C71.945 62.2474 71.6317 63.6435 71.3826 65.0543C71.1275 66.4585 70.9267 67.8688 70.8019 69.273L70.7367 70.3307V70.5936V70.6474C70.742 70.6038 70.742 70.5596 70.7367 70.5159C70.7205 70.3708 70.6741 70.2317 70.601 70.1096C70.4979 69.9602 70.5251 70.0498 70.6445 70.1514C70.8134 70.2968 70.9952 70.4229 71.1872 70.5279C72.29 71.1079 73.4452 71.5585 74.6337 71.8724C75.9091 72.2429 77.2335 72.5417 78.5686 72.8285C81.2444 73.3782 83.9961 73.8384 86.7099 74.2447L86.6176 77.1189C83.7702 77.2623 80.9176 77.2204 78.0747 76.9935C76.6473 76.8799 75.2144 76.7066 73.7327 76.4377C73.0054 76.3063 72.2673 76.1509 71.5237 75.9358C70.7275 75.7223 69.9487 75.4365 69.1953 75.0813C68.7469 74.8702 68.3179 74.612 67.9144 74.3104C67.3457 73.8954 66.866 73.3489 66.5087 72.709C66.2617 72.2543 66.0977 71.7509 66.0257 71.227C66.0257 71.0896 66.0257 70.9462 65.9877 70.8028V70.265V69.0101C66.0122 67.3597 66.1355 65.7128 66.3567 64.0803C66.5868 62.4708 66.8912 60.8752 67.2686 59.2998C67.4585 58.511 67.6811 57.7342 67.9144 56.9574C68.1478 56.1805 68.3921 55.4455 68.7286 54.5671L73.5265 56.8498Z" fill="#B65B52"/>
<path d="M70.9213 48.5617C68.8208 49.2608 66.2971 57.2262 66.2971 57.2262L71.4152 61.2538C71.7899 61.5492 72.2225 61.7435 72.678 61.8207C73.1336 61.8979 73.5992 61.856 74.0373 61.6983C74.4754 61.5407 74.8736 61.2717 75.1997 60.9131C75.5259 60.5545 75.7708 60.1165 75.9146 59.6344C76.5008 57.6684 76.9512 55.4515 76.5333 54.0054C75.6161 50.8742 73.3148 47.755 70.9213 48.5617Z" fill="#263238"/>
<path d="M86.1834 74.1431L91.7358 73.5993L88.7398 78.3619C88.7398 78.3619 85.4453 77.9675 84.642 75.7744L86.1834 74.1431Z" fill="#B55B52"/>
<path d="M95.3938 76.1987L91.7628 79.1028L88.7397 78.332L91.7519 73.5993L95.3938 76.1987Z" fill="#B55B52"/>
<path d="M152.051 21.9525C153.305 20.1 150.293 15.6721 146.982 18.2715C143.568 20.9486 138.065 20.0164 134.797 24.4024C131.53 28.7885 136.659 32.4336 136.268 40.1182C135.964 46.4702 127.443 48.2928 128.594 56.8498C130.016 67.4325 141.028 82.4192 151.026 77.4416C161.023 72.4639 173.202 57.9134 168.312 48.4421C163.422 38.9709 156.29 40.3094 159.086 32.834C160.811 28.167 159.058 18.9288 152.051 21.9525Z" fill="#263238"/>
<path d="M156.529 189.806L152.518 193.607L145.636 182.755L149.647 178.955L156.529 189.806Z" fill="#FF8B7B"/>
<path d="M151.151 192.567L156.198 188.611C156.289 188.541 156.399 188.506 156.51 188.513C156.621 188.519 156.727 188.567 156.811 188.647L160.638 192.28C160.73 192.367 160.802 192.477 160.849 192.6C160.897 192.723 160.918 192.856 160.911 192.989C160.904 193.123 160.87 193.253 160.81 193.369C160.75 193.485 160.667 193.585 160.567 193.66C158.792 195.071 157.853 195.579 155.623 197.311C154.255 198.381 150.809 201.297 148.92 202.773C147.031 204.249 145.414 202.421 146.065 201.638C148.974 198.1 150.239 195.381 150.613 193.433C150.689 193.082 150.881 192.773 151.151 192.567Z" fill="#263238"/>
<path opacity="0.2" d="M145.636 182.755L149.186 188.348L153.479 184.996L149.653 178.955L145.636 182.755Z" fill="black"/>
<path d="M133.799 85.413C133.799 85.413 126.385 116.892 122.656 139.032C119.693 156.642 146.971 186.795 146.971 186.795L152.735 181.267C152.735 181.267 138.977 158.363 133.142 142.563C141.929 118.739 155.031 96.6232 150.874 86.0644L133.799 85.413Z" fill="#263238"/>
<path d="M152.328 179.122L144.323 185.785L146.754 188.515L154.32 182.408L152.328 179.122Z" fill="#407BFF"/>
<path d="M149.479 195.256C149.152 195.551 148.75 195.729 148.328 195.764C148.213 195.758 148.101 195.724 147.999 195.664C147.898 195.604 147.81 195.52 147.742 195.417C147.701 195.361 147.673 195.294 147.663 195.223C147.652 195.151 147.659 195.078 147.682 195.011C147.932 194.3 150.184 193.816 150.635 193.75C150.659 193.744 150.685 193.748 150.707 193.76C150.73 193.771 150.748 193.791 150.76 193.816C150.774 193.839 150.782 193.868 150.782 193.896C150.782 193.925 150.774 193.953 150.76 193.977C150.373 194.449 149.944 194.878 149.479 195.256ZM148.057 194.885C147.985 194.935 147.927 195.005 147.889 195.088C147.877 195.109 147.871 195.133 147.871 195.157C147.871 195.181 147.877 195.205 147.889 195.226C147.936 195.297 147.997 195.356 148.067 195.399C148.138 195.441 148.216 195.466 148.296 195.471C148.741 195.471 149.463 194.975 150.255 194.079C149.489 194.222 148.748 194.494 148.057 194.885Z" fill="#407BFF"/>
<path d="M150.722 193.995H150.678C149.951 194.18 148.171 194.043 147.91 193.457C147.851 193.326 147.834 193.123 148.073 192.86C148.996 191.939 150.668 193.66 150.738 193.732C150.754 193.75 150.765 193.772 150.771 193.796C150.777 193.82 150.777 193.845 150.771 193.87C150.774 193.893 150.772 193.918 150.763 193.94C150.754 193.962 150.74 193.982 150.722 193.995ZM148.296 193.057L148.231 193.117C148.133 193.212 148.1 193.296 148.127 193.356C148.279 193.696 149.571 193.893 150.369 193.798C149.935 193.403 148.904 192.585 148.296 193.057Z" fill="#407BFF"/>
<path d="M135.796 54.6328C135.125 54.6156 134.472 54.8781 133.969 55.3678C133.466 55.8575 133.149 56.5383 133.082 57.2741C132.99 58.3497 132.876 59.4312 132.746 60.4889C132.502 62.4728 132.203 64.4507 131.845 66.3928C131.487 68.3348 131.025 70.253 130.494 72.1114C130.228 73.0436 129.918 73.9459 129.593 74.8363C129.43 75.2784 129.249 75.7147 129.05 76.1449C128.968 76.36 128.865 76.5632 128.773 76.7783V76.8201L128.534 76.7843C128.138 76.7006 127.226 76.4258 126.434 76.1867C126.168 76.1115 125.886 76.1415 125.638 76.2714C125.39 76.4014 125.192 76.6231 125.077 76.8978L124.377 78.5889C124.261 78.8533 124.232 79.1535 124.294 79.4388C124.357 79.7241 124.506 79.9769 124.719 80.1545C125.508 80.8647 126.402 81.4205 127.362 81.7978C128.081 82.0321 128.836 82.1072 129.582 82.0189C130.672 81.878 131.67 81.2733 132.361 80.3338C132.521 80.113 132.666 79.8793 132.795 79.6346L132.985 79.2641C133.11 79.0072 133.245 78.7622 133.359 78.5053C133.598 78.0033 133.831 77.4954 134.043 76.9815C134.477 75.9597 134.874 74.9259 135.221 73.8861C135.918 71.8247 136.491 69.7147 136.936 67.57C137.386 65.4486 137.761 63.3213 138.021 61.188C138.157 60.0587 138.277 58.9532 138.374 57.8298C138.407 57.4309 138.365 57.0288 138.251 56.6484C138.138 56.268 137.955 55.9172 137.713 55.6177C137.471 55.3182 137.177 55.0763 136.847 54.9069C136.517 54.7376 136.16 54.6443 135.796 54.6328Z" fill="#FF8B7B"/>
<path d="M148.6 209.31L143.368 209.125L143.319 195.812L148.556 195.991L148.6 209.31Z" fill="#FF8B7B"/>
<path d="M143.33 206.866L149.24 206.747C149.34 206.743 149.439 206.781 149.515 206.853C149.591 206.925 149.64 207.026 149.653 207.135L150.293 212.209C150.303 212.339 150.288 212.47 150.25 212.594C150.211 212.718 150.15 212.832 150.071 212.929C149.991 213.026 149.894 213.104 149.785 213.158C149.677 213.212 149.56 213.24 149.441 213.242C147.384 213.242 146.391 213.135 143.796 213.189C142.195 213.219 138.662 213.541 136.453 213.589C134.244 213.637 134.146 211.259 135.069 211.025C139.194 209.98 141.039 208.534 142.45 207.237C142.697 207.008 143.007 206.877 143.33 206.866Z" fill="#263238"/>
<path opacity="0.2" d="M148.556 195.997L143.319 195.818L143.346 202.678L148.583 202.863L148.556 195.997Z" fill="black"/>
<path d="M138.428 85.6939C138.428 85.6939 140.192 123.28 139.617 145.701C141.625 164.303 142.13 199.481 142.13 199.481L149.349 199.068C149.349 199.068 152.936 158.219 151.151 144.864C155.102 120.047 161.181 97.1013 155.031 86.393L138.428 85.6939Z" fill="#263238"/>
<path d="M141.24 201.136L150.326 200.999L150.874 197.055L140.675 197.539L141.24 201.136Z" fill="#407BFF"/>
<path d="M140.594 207.679L140.523 207.625C140.437 207.535 140.373 207.421 140.338 207.296C140.303 207.17 140.297 207.037 140.323 206.908C140.332 206.825 140.361 206.746 140.405 206.678C140.45 206.611 140.509 206.556 140.578 206.52C141.191 206.209 142.749 207.297 142.955 207.422C142.976 207.436 142.993 207.456 143.003 207.481C143.013 207.506 143.015 207.533 143.009 207.56C143.005 207.586 142.994 207.61 142.977 207.63C142.961 207.65 142.94 207.665 142.917 207.673C142.26 207.852 141.121 208.085 140.594 207.679ZM142.564 207.482C141.918 207.07 141.001 206.603 140.675 206.765C140.646 206.781 140.621 206.806 140.603 206.836C140.585 206.867 140.574 206.902 140.572 206.938C140.552 207.024 140.553 207.114 140.575 207.199C140.597 207.284 140.639 207.361 140.697 207.422C140.958 207.679 141.647 207.703 142.564 207.482Z" fill="#407BFF"/>
<path d="M142.711 207.578C142.195 207.183 141.387 206.096 141.5 205.492C141.524 205.386 141.578 205.292 141.654 205.223C141.731 205.154 141.825 205.114 141.924 205.11C142.02 205.09 142.119 205.095 142.213 205.124C142.307 205.153 142.394 205.205 142.467 205.277C143.009 205.821 143.009 207.464 143.009 207.536C143.01 207.56 143.004 207.583 142.994 207.604C142.983 207.625 142.968 207.643 142.95 207.655C142.93 207.667 142.909 207.673 142.887 207.673C142.865 207.673 142.844 207.667 142.825 207.655C142.784 207.634 142.746 207.608 142.711 207.578ZM142.244 205.45C142.159 205.385 142.053 205.359 141.951 205.379C141.794 205.379 141.761 205.48 141.745 205.54C141.669 205.934 142.26 206.854 142.76 207.279C142.733 206.729 142.624 205.809 142.282 205.486L142.244 205.45Z" fill="#407BFF"/>
<path d="M156.654 86.3811C157.403 75.5772 158.537 63.6201 159.807 56.5869C159.925 55.9217 159.921 55.2373 159.795 54.5741C159.669 53.9108 159.423 53.2821 159.072 52.7251C158.722 52.1681 158.273 51.6941 157.753 51.331C157.234 50.968 156.653 50.7233 156.046 50.6113C155.232 50.4619 154.358 50.3185 153.463 50.199C152.99 50.1392 152.524 50.0795 152.046 50.0317C148.846 49.6374 145.625 49.4936 142.407 49.6014C141.864 49.6313 141.289 49.6731 140.73 49.7269C140.073 49.7807 139.416 49.8524 138.781 49.9301C136.844 50.1552 135.038 51.1115 133.669 52.6364C132.3 54.1613 131.452 56.161 131.27 58.2959C130.868 63.2974 130.868 71.6094 132.04 85.3951C132.078 88.8251 128.067 101.248 126.119 115.87C128.881 116.701 137.327 116.88 142.201 116.528C147.074 116.175 155.194 121.529 156.654 119.802C158.114 118.075 158.657 93.9879 156.654 86.3811Z" fill="#407BFF"/>
<path opacity="0.3" d="M158.608 55.3081C158.222 55.2307 157.827 55.2307 157.441 55.3081L157.208 55.3559C156.394 55.536 155.674 56.0512 155.193 56.7964C154.713 57.5416 154.51 58.4606 154.624 59.3655C154.727 60.3515 154.798 61.2538 154.858 62.1262C155.009 64.1758 155.085 65.9864 155.069 67.6297C155.069 69.4224 155.026 71.2808 154.847 73.1332C154.847 73.4021 154.798 73.677 154.765 73.9578C154.733 74.2387 154.711 74.3761 154.695 74.5912C154.651 74.9976 154.581 75.4159 154.526 75.7864C154.499 75.9537 154.472 76.121 154.44 76.2883C154.402 76.5692 154.353 76.844 154.309 77.0651L154.206 77.5312L154.043 78.0451C153.792 78.7611 153.483 79.451 153.121 80.1067C152.781 80.698 152.645 81.4042 152.739 82.0965C152.832 82.7887 153.149 83.4208 153.631 83.8773L154.109 84.3135C154.473 84.6518 154.914 84.8735 155.385 84.9546C155.856 85.0358 156.338 84.9732 156.779 84.7736C157.522 74.412 158.608 63.2616 159.818 56.5629C159.862 56.3267 159.887 56.0868 159.894 55.8459C159.504 55.571 159.066 55.3879 158.608 55.3081Z" fill="black"/>
<path opacity="0.2" d="M130.146 100.149L128.686 101.481C128.442 102.581 128.203 103.728 127.964 104.905C130.01 106.764 137.088 109.011 138.412 107.738C135.655 104.122 130.146 100.149 130.146 100.149Z" fill="black"/>
<path d="M142.407 49.5895C142.407 49.5895 139.064 50.6531 140.496 56.3837C140.674 57.0684 140.998 57.6966 141.44 58.2165C141.882 58.7364 142.43 59.133 143.038 59.3735C143.647 59.6141 144.299 59.6916 144.941 59.5999C145.582 59.5081 146.194 59.2495 146.727 58.8456C152.269 54.7105 152.052 50.0257 152.052 50.0257L142.407 49.5895Z" fill="white"/>
<path d="M151.015 42.6996C150.7 45.556 150.781 48.5437 152.052 50.0257C152.052 50.0257 151.346 53.2764 147.096 56.4016C144.355 58.4154 140.551 56.1506 140.789 52.5354C140.807 51.9316 140.967 51.3431 141.252 50.8269C141.537 50.3108 141.939 49.8845 142.418 49.5895C145.935 48.8365 146.163 46.3208 145.49 42.0782L148.317 41.0384C148.577 40.8122 148.892 40.6759 149.222 40.6469C149.552 40.6178 149.882 40.6973 150.171 40.8752C150.46 41.0531 150.694 41.3215 150.845 41.6463C150.995 41.9711 151.054 42.3377 151.015 42.6996Z" fill="#FF8B7B"/>
<path opacity="0.2" d="M148.307 41.0384C148.55 40.8245 148.843 40.6897 149.153 40.6494C149.462 40.6091 149.775 40.6648 150.058 40.8102C150.34 40.9556 150.579 41.1849 150.75 41.4723C150.92 41.7597 151.013 42.0937 151.02 42.4367C149.662 44.4058 147.786 45.8664 145.647 46.6196C145.848 45.1014 145.791 43.5554 145.479 42.0602L148.307 41.0384Z" fill="black"/>
<path d="M153.94 30.2764C154.119 36.0369 154.304 38.4689 151.981 41.7435C148.48 46.6614 142.135 45.789 140.426 40.2317C138.89 35.2361 138.857 26.6492 143.682 23.7212C148.507 20.7932 153.767 24.51 153.94 30.2764Z" fill="#FF8B7B"/>
<path d="M149.294 23.5181C145.984 25.8187 151.091 32.8519 154.011 34.7581C156.931 36.6643 157.474 27.9639 156.182 26.1115C154.89 24.259 152.475 21.3131 149.294 23.5181Z" fill="#263238"/>
<path d="M151.167 23.1117C152.051 26.3086 142.825 29.0215 138.911 28.6032C139.08 23.3507 145.804 18.2356 151.167 23.1117Z" fill="#263238"/>
<path d="M155.579 36.007C155.167 37.0286 154.413 37.8356 153.474 38.2598C152.231 38.8095 151.503 37.6264 151.758 36.258C151.986 35.021 152.909 33.2702 154.201 33.2702C155.493 33.2702 156.073 34.7402 155.579 36.007Z" fill="#FF8B7B"/>
<path d="M145.387 32.9475C145.43 33.4136 145.24 33.82 144.969 33.8558C144.697 33.8917 144.426 33.5451 144.426 33.079C144.426 32.6129 144.572 32.2066 144.844 32.1707C145.115 32.1349 145.343 32.5053 145.387 32.9475Z" fill="#263238"/>
<path d="M140.692 33.5809C140.73 34.047 140.545 34.4534 140.268 34.4892C139.992 34.5251 139.726 34.1785 139.726 33.7124C139.726 33.2463 139.872 32.84 140.144 32.8041C140.415 32.7683 140.648 33.1208 140.692 33.5809Z" fill="#263238"/>
<path d="M140.247 32.8161L139.221 32.6189C139.221 32.6189 139.807 33.4315 140.247 32.8161Z" fill="#263238"/>
<path d="M142.732 34.3697C142.33 35.4388 141.798 36.4437 141.153 37.3575C141.362 37.5309 141.604 37.6504 141.86 37.7073C142.116 37.7642 142.381 37.7569 142.635 37.6861L142.732 34.3697Z" fill="#FF5652"/>
<path d="M144.8 39.0545C144.777 39.0482 144.756 39.0338 144.74 39.0134C144.724 38.993 144.715 38.9676 144.713 38.941C144.71 38.9047 144.72 38.8685 144.74 38.8397C144.76 38.8108 144.789 38.7915 144.822 38.7856C145.346 38.7264 145.851 38.5335 146.295 38.2223C146.74 37.9112 147.113 37.4902 147.384 36.9929C147.391 36.9768 147.402 36.9625 147.414 36.9508C147.427 36.939 147.441 36.9302 147.457 36.9246C147.472 36.9191 147.489 36.917 147.505 36.9184C147.522 36.9199 147.537 36.9249 147.552 36.9332C147.581 36.9508 147.602 36.9801 147.611 37.0148C147.62 37.0494 147.617 37.0867 147.601 37.1184C147.314 37.658 146.915 38.1152 146.437 38.4527C145.958 38.7902 145.414 38.9984 144.849 39.0605L144.8 39.0545Z" fill="#263238"/>
<path d="M147.84 30.5215C147.799 30.5069 147.764 30.48 147.737 30.4438C147.536 30.1916 147.283 29.9957 147 29.872C146.717 29.7484 146.412 29.7006 146.108 29.7327C146.077 29.7396 146.045 29.7394 146.013 29.7323C145.982 29.7251 145.952 29.7111 145.926 29.691C145.9 29.6709 145.877 29.6452 145.86 29.6154C145.843 29.5856 145.831 29.5524 145.826 29.5176C145.816 29.4458 145.832 29.3726 145.869 29.3127C145.906 29.2528 145.963 29.2107 146.027 29.1949C146.413 29.1389 146.805 29.1894 147.169 29.3416C147.533 29.4939 147.857 29.7433 148.111 30.0673C148.157 30.1196 148.182 30.1892 148.182 30.2615C148.182 30.3339 148.157 30.4035 148.111 30.4557C148.076 30.4938 148.032 30.5201 147.984 30.5317C147.936 30.5434 147.886 30.5398 147.84 30.5215Z" fill="#263238"/>
<path d="M138.412 30.7066L138.38 30.6648C138.346 30.6023 138.335 30.5281 138.349 30.4571C138.363 30.3861 138.401 30.3236 138.456 30.2823C138.772 30.0294 139.139 29.8651 139.526 29.8036C139.913 29.7422 140.307 29.7855 140.675 29.9298C140.705 29.9446 140.732 29.9659 140.755 29.9922C140.778 30.0186 140.795 30.0496 140.807 30.0835C140.818 30.1174 140.824 30.1534 140.823 30.1896C140.821 30.2258 140.814 30.2614 140.8 30.2943C140.788 30.3269 140.77 30.3564 140.747 30.3813C140.724 30.4061 140.697 30.4258 140.667 30.4391C140.637 30.4524 140.606 30.4592 140.574 30.4589C140.541 30.4587 140.51 30.4515 140.48 30.4377C140.186 30.3286 139.873 30.2993 139.567 30.3523C139.261 30.4054 138.971 30.5393 138.722 30.7425C138.674 30.777 138.617 30.7923 138.561 30.7858C138.505 30.7792 138.452 30.7512 138.412 30.7066Z" fill="#263238"/>
<path d="M144.947 32.2066L143.921 32.0094C143.921 32.0094 144.507 32.8161 144.947 32.2066Z" fill="#263238"/>
<path d="M131.096 69.7391C131.063 73.1571 124.48 74.9079 123.09 87.7913C121.701 100.675 136.659 112.351 146.429 108.138C156.198 103.925 148.057 81.248 148.057 81.248C148.057 81.248 131.139 64.5702 131.096 69.7391Z" fill="#407BFF"/>
<path d="M131.161 59.9093C131.063 64.1878 129.582 64.8152 129.191 68.4424C128.8 72.0695 132.99 75.3501 135.753 74.167C138.515 72.9838 136.214 66.6079 136.214 66.6079C136.214 66.6079 131.194 58.4572 131.161 59.9093Z" fill="#407BFF"/>
<path d="M130.412 75.6669L127.975 74.3343L126.754 79.3897C127.882 79.2156 128.959 78.7597 129.902 78.0571L130.412 75.6669Z" fill="#FF8B7B"/>
<path d="M125.668 76.2704L124.719 79.4434L126.77 79.3897L127.991 74.3343L125.668 76.2704Z" fill="#FF8B7B"/>
<path d="M155.683 52.4458C156.011 52.2892 156.365 52.209 156.723 52.2102C157.081 52.2114 157.435 52.294 157.763 52.4527C158.09 52.6115 158.385 52.843 158.627 53.1328C158.87 53.4226 159.055 53.7645 159.172 54.1369C159.466 55.099 159.748 56.067 160.003 57.041C160.502 58.9891 160.926 60.967 161.257 62.9748C161.597 64.9967 161.82 67.0405 161.924 69.0938C161.962 69.6077 161.957 70.1335 161.978 70.6534C162 71.1733 161.978 71.6931 161.978 72.219C161.978 72.7448 161.978 73.2408 161.935 73.8204L161.859 74.7466L161.718 75.637C161.271 77.8683 160.488 80.0013 159.4 81.9472C158.387 83.7508 157.237 85.4578 155.965 87.0503C154.711 88.6219 153.392 90.0859 152.03 91.4902C150.645 92.8803 149.196 94.1907 147.688 95.4161L146.011 93.2112C147.221 91.8607 148.464 90.4206 149.598 88.9446C150.733 87.4686 151.856 85.9867 152.855 84.439C153.849 82.933 154.74 81.347 155.52 79.6944C155.883 78.9196 156.204 78.1214 156.48 77.3042C156.723 76.5361 156.904 75.7464 157.023 74.9438L157.088 74.3821V73.8384C157.088 73.438 157.088 72.942 157.056 72.4998C157.023 72.0576 157.056 71.6692 156.996 71.2569C156.936 70.8446 156.936 70.265 156.871 69.769C156.692 67.9405 156.372 66.1239 156.041 64.3013C155.71 62.4788 155.265 60.6802 154.771 58.9233C154.537 58.027 154.282 57.1307 154.016 56.2523V56.2044C153.796 55.519 153.821 54.767 154.086 54.1011C154.351 53.4352 154.837 52.9054 155.444 52.6191L155.683 52.4458Z" fill="#FF8B7B"/>
<path d="M161.908 62.8791C161.582 60.9191 161.159 58.8994 160.638 56.8677C160.388 55.9295 159.916 54.7464 159.552 53.6887C159.353 53.0022 158.947 52.4109 158.401 52.0123C157.856 51.6137 157.203 51.4315 156.551 51.4957C156.16 51.5184 155.776 51.6176 155.417 51.7885L155.199 51.896C154.438 52.2574 153.831 52.9246 153.501 53.7617C153.172 54.5989 153.144 55.543 153.425 56.4016C153.712 57.3458 153.967 58.1943 154.179 59.0488C154.722 61.0267 155.129 62.7716 155.433 64.3909C155.748 66.1478 156.073 67.9763 156.252 69.8168C156.29 70.0916 156.307 70.3665 156.323 70.6414C156.339 70.9163 156.355 71.0657 156.377 71.2808C156.415 71.6871 156.426 72.1054 156.431 72.4759V72.9778C156.431 73.2587 156.431 73.5455 156.431 73.7726V74.2506L156.372 74.7884C156.257 75.546 156.084 76.2916 155.856 77.0173C155.594 77.8178 155.284 78.5983 154.928 79.3538L159.932 82.2938C161.062 80.2929 161.879 78.0972 162.347 75.7983L162.494 74.8482L162.57 73.9041C162.57 73.5097 162.57 73.1631 162.603 72.8105V72.2907C162.603 71.6931 162.603 71.1433 162.603 70.6653C162.603 70.492 162.603 70.3187 162.603 70.1395C162.603 69.7869 162.603 69.4284 162.559 69.0997C162.462 67.0131 162.244 64.9354 161.908 62.8791Z" fill="#407BFF"/>
<path d="M139.53 96.2587L142.32 99.5213L145.723 97.6569L142.841 92.6434L139.53 96.2587Z" fill="#FF8B7B"/>
<path d="M147.514 92.0041L142.846 92.6434L145.728 97.6569C145.728 97.6569 148.269 95.9898 148.958 93.7071L147.514 92.0041Z" fill="#FF8B7B"/>
</svg>
