<svg width="282" height="247" viewBox="0 0 282 247" fill="none" xmlns="http://www.w3.org/2000/svg">
<path d="M41.272 248.319C96.3054 275.116 185.528 275.124 240.561 248.319C295.595 221.515 295.587 178.072 240.561 151.276C185.536 124.479 96.3054 124.479 41.272 151.276C-13.7613 178.072 -13.7533 221.523 41.272 248.319Z" fill="#F5F5F5"/>
<path d="M240.37 228.516C250.505 228.516 258.722 224.516 258.722 219.581C258.722 214.646 250.505 210.646 240.37 210.646C230.234 210.646 222.017 214.646 222.017 219.581C222.017 224.516 230.234 228.516 240.37 228.516Z" fill="#EBEBEB"/>
<path d="M37.0951 220.862L43.5879 217.035C47.2131 214.013 49.9722 210.046 51.5742 205.554C53.5787 199.908 53.2992 195.616 51.8617 193.462C50.0967 190.81 45.5206 191.275 45.3369 196.856C44.9536 207.855 41.815 215.485 37.0951 220.862Z" fill="#BA68C8"/>
<path opacity="0.2" d="M37.0951 220.862L43.5879 217.035C47.2131 214.013 49.9722 210.046 51.5742 205.554C53.5787 199.908 53.2992 195.616 51.8617 193.462C50.0967 190.81 45.5206 191.275 45.3369 196.856C44.9536 207.855 41.815 215.485 37.0951 220.862Z" fill="black"/>
<path d="M37.0951 221.27C37.0106 221.269 36.9285 221.24 36.8608 221.189C36.7931 221.137 36.7432 221.065 36.7183 220.982C36.6935 220.899 36.6949 220.811 36.7224 220.729C36.75 220.647 36.8021 220.577 36.8715 220.527C51.8857 209.92 48.9787 195.126 48.9467 194.979C48.9357 194.926 48.9351 194.87 48.945 194.817C48.9549 194.763 48.9751 194.711 49.0044 194.666C49.0337 194.62 49.0715 194.58 49.1158 194.549C49.16 194.519 49.2097 194.497 49.2622 194.486C49.3146 194.474 49.3687 194.474 49.4214 194.484C49.474 194.494 49.5242 194.515 49.5691 194.544C49.614 194.574 49.6526 194.613 49.6829 194.658C49.7131 194.703 49.7343 194.754 49.7453 194.808C49.7453 194.963 52.8121 210.262 37.3507 221.196C37.2756 221.249 37.1859 221.275 37.0951 221.27Z" fill="white"/>
<path d="M24.0855 228.54C24.0855 228.54 21.8254 226.664 22.3685 224.118C22.9115 221.572 24.373 219.744 21.8733 216.464C19.3736 213.184 18.6788 208.81 21.6657 206.444C23.9418 204.608 27.4956 207.203 28.7734 202.364C29.7158 198.822 29.3964 190.981 33.8128 188.37C38.2292 185.759 41.0004 189.692 40.3056 195.012C39.6987 199.769 38.8361 204.347 39.507 205.62C40.8008 208.067 43.013 207.733 42.9091 212.204C42.8213 216.366 38.9639 219.809 38.9639 219.809L24.0855 228.54Z" fill="#BA68C8"/>
<path d="M31.5048 224.55C31.4072 224.549 31.3132 224.512 31.2399 224.446C31.1666 224.38 31.1189 224.29 31.1055 224.191C29.9635 214.522 32.7027 197.827 34.9389 192.866C34.9577 192.811 34.9879 192.761 35.0273 192.718C35.0668 192.676 35.1146 192.643 35.1675 192.622C35.2205 192.6 35.2774 192.59 35.3344 192.593C35.3914 192.596 35.4472 192.611 35.4979 192.637C35.5456 192.659 35.5885 192.691 35.6241 192.73C35.6596 192.769 35.6872 192.815 35.705 192.865C35.7229 192.915 35.7307 192.969 35.7281 193.022C35.7254 193.076 35.7124 193.128 35.6896 193.176C33.4774 198.072 30.834 214.816 31.9281 224.061C31.9393 224.168 31.9087 224.275 31.8428 224.359C31.777 224.443 31.6813 224.497 31.5767 224.509L31.5048 224.55Z" fill="white"/>
<path d="M31.2891 217.019C31.228 217.022 31.1672 217.008 31.1134 216.978C28.3421 215.599 26.5851 210.679 26.5133 210.45C26.4937 210.399 26.4843 210.345 26.4856 210.291C26.4869 210.236 26.4989 210.182 26.5209 210.133C26.5428 210.083 26.5743 210.038 26.6135 210.001C26.6527 209.964 26.6988 209.935 26.749 209.917C26.7992 209.898 26.8525 209.89 26.9058 209.893C26.9591 209.896 27.0114 209.91 27.0594 209.934C27.1074 209.957 27.1502 209.991 27.1854 210.032C27.2205 210.073 27.2473 210.121 27.264 210.173C27.264 210.222 28.981 214.987 31.4648 216.219C31.5462 216.259 31.6119 216.327 31.6509 216.41C31.69 216.494 31.7001 216.588 31.6797 216.678C31.6593 216.768 31.6095 216.849 31.5385 216.906C31.4676 216.964 31.3796 216.995 31.2891 216.994V217.019Z" fill="white"/>
<path d="M31.2413 220.283C31.1613 220.283 31.0831 220.258 31.0175 220.211C30.9518 220.164 30.9017 220.098 30.8739 220.022C30.8342 219.922 30.8345 219.81 30.8749 219.711C30.9153 219.612 30.9924 219.533 31.0895 219.491C35.7535 217.582 38.6605 211.911 38.6925 211.845C38.7412 211.749 38.8253 211.677 38.9264 211.644C39.0275 211.611 39.1373 211.62 39.2315 211.67C39.3258 211.72 39.3968 211.806 39.429 211.909C39.4612 212.012 39.452 212.125 39.4032 212.221C39.2755 212.466 36.3285 218.226 31.417 220.25C31.3622 220.277 31.3016 220.288 31.2413 220.283Z" fill="white"/>
<path d="M194.265 176.383C194.265 176.383 190.775 170.606 190.431 164.331C190.088 158.056 191.438 155.445 193.291 154.695C195.143 153.944 195.287 156.253 196.237 157.616C197.188 158.978 199.129 158.203 199.847 153.952C200.566 149.701 203.186 142.528 208.632 141.133C214.622 139.615 211.411 146.796 209.902 149.595C208.393 152.394 207.227 156.212 208.217 157.249C209.207 158.285 210.749 156.367 212.21 158.146C213.991 160.292 208.456 168.019 205.278 169.888L194.265 176.383Z" fill="#BA68C8"/>
<path d="M199.049 173.96C198.996 173.958 198.945 173.945 198.897 173.923C198.849 173.9 198.806 173.868 198.771 173.829C198.735 173.789 198.708 173.743 198.689 173.693C198.671 173.643 198.663 173.589 198.665 173.535C199.206 163.442 202.287 153.661 207.61 145.14C207.64 145.095 207.679 145.057 207.723 145.029C207.768 145 207.818 144.981 207.871 144.973C207.923 144.964 207.976 144.967 208.027 144.98C208.079 144.993 208.127 145.017 208.169 145.05C208.253 145.113 208.309 145.208 208.325 145.313C208.341 145.418 208.317 145.526 208.257 145.613C203.029 154.01 200.004 163.639 199.472 173.576C199.469 173.63 199.455 173.682 199.432 173.731C199.41 173.779 199.377 173.822 199.338 173.858C199.299 173.893 199.253 173.921 199.203 173.938C199.154 173.956 199.101 173.963 199.049 173.96Z" fill="white"/>
<path d="M199.504 169.137C199.437 169.137 199.371 169.12 199.312 169.088C197.076 167.824 195.838 164.07 195.79 163.915C195.773 163.864 195.765 163.81 195.768 163.756C195.771 163.703 195.784 163.65 195.807 163.601C195.83 163.553 195.863 163.509 195.902 163.473C195.942 163.438 195.988 163.41 196.038 163.393C196.138 163.359 196.248 163.368 196.342 163.417C196.437 163.466 196.508 163.551 196.541 163.654C196.541 163.654 197.739 167.269 199.735 168.37C199.826 168.425 199.892 168.513 199.92 168.617C199.949 168.72 199.937 168.831 199.887 168.925C199.851 168.995 199.795 169.053 199.727 169.091C199.659 169.129 199.581 169.145 199.504 169.137Z" fill="white"/>
<path d="M199.895 166.665C199.807 166.664 199.721 166.633 199.652 166.577C199.582 166.521 199.533 166.443 199.512 166.355C199.499 166.303 199.496 166.25 199.503 166.197C199.511 166.145 199.528 166.094 199.555 166.048C199.582 166.003 199.617 165.963 199.659 165.932C199.701 165.9 199.749 165.878 199.799 165.865C205.565 164.372 207.562 161.288 207.578 161.255C207.606 161.21 207.643 161.17 207.686 161.139C207.729 161.108 207.778 161.086 207.83 161.074C207.881 161.063 207.935 161.061 207.987 161.071C208.039 161.08 208.088 161.1 208.133 161.129C208.178 161.158 208.216 161.195 208.246 161.239C208.277 161.283 208.298 161.333 208.31 161.386C208.321 161.439 208.323 161.493 208.313 161.546C208.304 161.599 208.285 161.65 208.257 161.696C208.169 161.834 206.092 165.074 199.999 166.657L199.895 166.665Z" fill="white"/>
<path d="M107.374 163.703C107.374 163.703 99.7154 161.794 99.3161 147.139C98.8928 131.325 101.193 112.868 92.1285 111.375C83.0641 109.881 78.0327 121.166 78.1445 134.344C78.2483 145.882 82.8005 170.933 107.342 175.845L107.374 163.703Z" fill="#BA68C8"/>
<path opacity="0.2" d="M107.374 163.703C107.374 163.703 99.7154 161.794 99.3161 147.139C98.8928 131.325 101.193 112.868 92.1285 111.375C83.0641 109.881 78.0327 121.166 78.1445 134.344C78.2483 145.882 82.8005 170.933 107.342 175.845L107.374 163.703Z" fill="black"/>
<path d="M107.374 174.343H107.302C101.784 173.315 97.2876 170.206 93.9413 165.115C84.0224 149.995 87.145 121.762 88.1752 116.833C88.1983 116.728 88.2602 116.637 88.3481 116.577C88.4359 116.518 88.5429 116.496 88.6464 116.515C88.7498 116.541 88.8397 116.605 88.8977 116.696C88.9556 116.788 88.9772 116.898 88.9579 117.005C87.9436 121.901 84.837 149.774 94.6042 164.658C96.0259 166.966 97.9016 168.947 100.112 170.475C102.323 172.003 104.82 173.045 107.446 173.535C107.498 173.545 107.548 173.565 107.592 173.595C107.637 173.625 107.675 173.663 107.705 173.708C107.734 173.753 107.755 173.803 107.765 173.856C107.776 173.909 107.776 173.964 107.766 174.017C107.749 174.11 107.7 174.193 107.628 174.253C107.557 174.313 107.467 174.345 107.374 174.343Z" fill="white"/>
<path d="M107.374 211.952C99.4598 213.045 86.6099 213.029 79.1907 207.056C71.7714 201.083 73.3208 195.942 76.1719 193.796C79.023 191.65 81.4987 189.202 76.5951 184.437C71.6916 179.672 63.8171 172.018 61.2615 160.537C58.7059 149.056 59.9677 141.876 64.9831 139.485C69.8467 137.167 71.1325 140.856 74.1114 148.461C77.0903 156.065 83.7908 149.546 89.5249 151.92C95.259 154.295 95.0274 158.995 95.3868 163.034C95.7462 167.073 97.639 168.191 100.889 168.191C104.14 168.191 107.374 170.1 107.374 173.903V211.952Z" fill="#BA68C8"/>
<path d="M107.374 198.618C107.34 198.626 107.305 198.626 107.27 198.618C106.927 198.521 98.7411 196.089 86.8176 184.902C74.1194 172.989 68.1297 155.119 68.0659 154.939C68.0352 154.837 68.0447 154.726 68.0924 154.63C68.14 154.534 68.2221 154.461 68.3214 154.425C68.421 154.392 68.5296 154.399 68.6237 154.446C68.7179 154.494 68.79 154.577 68.8245 154.678C68.8804 154.858 74.8142 172.532 87.3607 184.298C99.1165 195.338 107.398 197.811 107.486 197.835C107.536 197.85 107.583 197.875 107.624 197.909C107.665 197.942 107.699 197.984 107.724 198.031C107.75 198.078 107.765 198.129 107.771 198.182C107.777 198.236 107.772 198.29 107.758 198.341C107.732 198.423 107.68 198.495 107.611 198.545C107.542 198.595 107.459 198.621 107.374 198.618Z" fill="white"/>
<path d="M90.1479 187.742C90.0676 187.743 89.989 187.718 89.9231 187.671C89.8571 187.625 89.8073 187.558 89.7805 187.48C87.2169 180.757 86.6339 166.371 86.586 165.759C86.5838 165.652 86.6225 165.547 86.694 165.468C86.7654 165.389 86.8642 165.341 86.9694 165.335C87.0737 165.336 87.1737 165.377 87.2504 165.45C87.327 165.522 87.3748 165.62 87.3847 165.727C87.3847 165.873 87.9836 180.585 90.4993 187.187C90.5185 187.237 90.5278 187.291 90.5266 187.345C90.5253 187.399 90.5136 187.452 90.492 187.501C90.4705 187.551 90.4395 187.595 90.401 187.632C90.3625 187.669 90.3172 187.698 90.2677 187.717C90.2292 187.731 90.1888 187.739 90.1479 187.742Z" fill="white"/>
<path d="M90.084 197.411C89.3477 197.417 88.6117 197.379 87.8798 197.297C87.8273 197.29 87.7767 197.273 87.7306 197.247C87.6846 197.22 87.6441 197.185 87.6114 197.142C87.5788 197.1 87.5547 197.051 87.5404 197C87.5262 196.948 87.5221 196.893 87.5284 196.84C87.5347 196.786 87.5512 196.734 87.5771 196.687C87.603 196.64 87.6377 196.599 87.6792 196.566C87.7207 196.532 87.7683 196.508 87.8191 196.493C87.87 196.478 87.9232 196.474 87.9756 196.481C88.0475 196.481 95.4827 197.346 98.8928 193.796C98.9283 193.753 98.9721 193.718 99.0215 193.693C99.0709 193.668 99.1247 193.654 99.1797 193.652C99.2347 193.649 99.2896 193.658 99.3409 193.678C99.3923 193.699 99.4391 193.729 99.4782 193.769C99.5174 193.808 99.5482 193.856 99.5686 193.908C99.5891 193.96 99.5987 194.016 99.597 194.072C99.5953 194.128 99.5822 194.184 99.5586 194.234C99.535 194.285 99.5014 194.33 99.4599 194.367C96.9921 196.97 92.6875 197.411 90.084 197.411Z" fill="white"/>
<path d="M84.334 42.898L83.4715 37.8145L79.0311 40.801C78.6254 39.985 78.0503 39.2694 77.346 38.7039L79.4703 32.8289L75.4772 31.9232L72.5542 37.635C71.4967 37.8173 70.4714 38.1582 69.5115 38.6468L68.2416 34.3384L63.4978 38.149L63.8093 43.2081C62.8432 44.3137 61.9671 45.4981 61.1898 46.7494L57.2765 46.5454L54.5292 52.8366L57.8914 54.3053C57.5404 55.6066 57.3184 56.9406 57.2286 58.2873L52.9559 62.3019L53.8105 67.3935L58.2588 64.4071C58.6622 65.2223 59.2378 65.9357 59.9439 66.496L57.8595 72.3792L61.8526 73.2767L66.0374 69.1153C67.0038 68.9602 66.7642 67.0998 67.8184 66.5694L69.0882 70.8614L73.824 67.059L73.7042 65.068C74.6626 63.9746 78.2884 61.5675 79.071 60.3109L80.0533 58.679L82.8006 52.3878L81.5228 50.0215L80.1013 46.9371L84.334 42.898ZM69.8389 59.6336C66.1972 62.5548 65.0471 63.1994 64.4322 59.2909C63.8172 55.3824 65.9017 49.4421 69.5434 46.5128C73.1851 43.5834 74.5748 43.3794 75.2296 47.2798C75.8845 51.1801 73.4886 56.7451 69.8389 59.6336Z" fill="#E0E0E0"/>
<path d="M75.5092 31.9232L80.6922 34.9749L77.7693 40.6704L72.5862 37.6187L75.5092 31.9232Z" fill="#F5F5F5"/>
<path d="M88.6546 40.8662L84.2142 43.8527L79.0311 40.8009L83.4715 37.8145L88.6546 40.8662Z" fill="#F5F5F5"/>
<path d="M87.9437 55.415L84.5815 53.9544L79.3984 50.9027L82.7606 52.3633L87.9437 55.415Z" fill="#E0E0E0"/>
<path d="M57.8516 72.3791L63.0346 75.4227L65.159 69.5477L59.9759 66.496L57.8516 72.3791Z" fill="#E0E0E0"/>
<path d="M74.2234 73.9132L69.0483 70.8614L67.7784 66.5694L72.9615 69.6211L74.2234 73.9132Z" fill="#E0E0E0"/>
<path d="M89.5091 45.9498L88.6546 40.8662L84.2142 43.8527C83.8055 43.0364 83.2278 42.3208 82.5211 41.7557L84.6455 35.8806L80.6923 34.9749L77.7613 40.6867C76.7038 40.869 75.6785 41.21 74.7186 41.6985L73.4567 37.4065L68.7129 41.2171L69.0244 46.2762C68.0573 47.3896 67.1812 48.5822 66.4049 49.842L62.4836 49.638L59.7363 55.9291L63.0985 57.3979C62.7507 58.7026 62.5287 60.039 62.4357 61.388L58.171 65.3455L59.0256 70.4372L63.4659 67.4507C63.8747 68.2646 64.4525 68.9775 65.159 69.5396L63.0347 75.4146L67.0278 76.3203L69.9508 70.6085C71.0123 70.4283 72.041 70.0844 73.0015 69.5885L74.2633 73.8806L79.0072 70.0781L78.6957 65.0191C79.6618 63.9135 80.5378 62.7291 81.3152 61.4778L85.2365 61.6736L87.9837 55.3824L84.5736 53.9218C84.9272 52.618 85.1519 51.2813 85.2445 49.9317L89.5091 45.9498ZM75.03 62.718C71.3963 65.6392 67.9143 64.8477 67.2514 60.9474C66.5885 57.047 69.0084 51.5066 72.6501 48.5854C76.2919 45.6642 79.7659 46.4638 80.4287 50.3642C81.0916 54.2645 78.6718 59.7968 75.03 62.718Z" fill="#EBEBEB"/>
<path d="M73.4567 37.3902L68.2736 34.3384L63.5298 38.149L68.7129 41.2008L73.4567 37.3902Z" fill="#F5F5F5"/>
<path d="M63.5298 38.149L63.8412 43.2081L69.0243 46.2598L68.7129 41.2008L63.5298 38.149Z" fill="#E0E0E0"/>
<path d="M66.4048 49.8011L61.2217 46.7494L57.3085 46.5536L62.4836 49.6053L66.4048 49.8011Z" fill="#F5F5F5"/>
<path d="M57.3084 46.5536L54.5612 52.8366L59.7363 55.8883L62.4835 49.6053L57.3084 46.5536Z" fill="#E0E0E0"/>
<path d="M62.4357 61.339L57.2606 58.2873L52.9879 62.3019L58.163 65.3536L62.4357 61.339Z" fill="#F5F5F5"/>
<path d="M59.0255 70.4453L53.8425 67.3936L52.9879 62.3019L58.163 65.3536L59.0255 70.4453Z" fill="#E0E0E0"/>
<path d="M80.6922 34.9749L75.5092 31.9232L79.4703 32.8289L84.6454 35.8806L80.6922 34.9749Z" fill="#F5F5F5"/>
<path d="M61.1259 19.8222V12.2255L55.208 14.9509C54.8946 13.662 54.3533 12.4425 53.6108 11.3524L57.3404 3.67412L52.7882 0.989563L48.1402 8.12934C46.8449 8.01372 45.5399 8.14374 44.2908 8.51285L43.636 1.91162L37.199 5.71405L36.5521 13.0578C35.1512 14.3261 33.8631 15.7187 32.7028 17.2193L28.0548 15.5873L23.5026 23.6492L27.2242 26.9131C26.5365 28.6898 26.0021 30.5246 25.6269 32.3964L19.7091 36.6476V44.2525L25.6269 41.5272C25.9404 42.816 26.4817 44.0355 27.2242 45.1256L23.5186 52.8121L28.0707 55.4966L32.7187 48.3569C34.014 48.4721 35.319 48.3421 36.5681 47.9734L37.215 54.5746L43.6519 50.7721L44.3068 43.4284C46.3159 42.6794 48.0956 41.4015 49.4659 39.7239L52.8042 40.9233L57.3563 32.8697L54.5612 30.4218C55.1679 28.3805 55.3928 26.2406 55.224 24.1143L61.1259 19.8222ZM40.4175 38.8018C35.482 41.7148 32.4312 39.6178 32.4312 33.8162C32.4312 28.0146 36.5122 20.8422 41.4557 17.9292C46.3992 15.0162 49.3861 17.1132 49.3861 22.9637C49.3861 28.8143 45.361 35.8806 40.4175 38.8018Z" fill="#E0E0E0"/>
<path d="M57.9634 4.03315L52.7883 0.989563L48.1403 8.12934L53.3154 11.1811L57.9634 4.03315Z" fill="#F5F5F5"/>
<path d="M66.309 15.2773L61.126 12.2255L55.2081 14.9509L60.3912 18.0026L66.309 15.2773Z" fill="#F5F5F5"/>
<path d="M42.3741 57.6263L37.199 54.5746L36.5521 47.9734L41.7272 51.0251L42.3741 57.6263Z" fill="#E0E0E0"/>
<path d="M23.4946 52.8121L28.6777 55.8639L32.4073 48.1855L27.2242 45.1338L23.4946 52.8121Z" fill="#E0E0E0"/>
<path d="M66.309 22.9148V15.3181L60.3912 18.0189C60.081 16.7289 59.5394 15.5088 58.7939 14.4205L62.5235 6.74219L57.9713 4.04947L53.3233 11.1974C52.028 11.0778 50.7222 11.2079 49.4739 11.5809L48.8191 4.96336L42.3821 8.7658L41.7273 16.1096C40.3284 17.38 39.0404 18.7724 37.8779 20.271L33.2299 18.6391L28.6777 26.7009L32.4073 29.9648C31.716 31.7403 31.1814 33.5754 30.81 35.4482L24.8922 39.6994V47.3043L30.81 44.5789C31.12 45.869 31.6616 47.0891 32.4073 48.1774L28.6777 55.8557L33.2299 58.5402L37.8779 51.4005C39.1732 51.5161 40.4782 51.3861 41.7273 51.0169L42.3821 57.6182L48.8191 53.8157L49.466 46.472C50.8668 45.2037 52.155 43.8111 53.3153 42.3105L57.9633 43.9425L62.5155 35.8888L58.7859 32.6249C59.477 30.8493 60.0115 29.0143 60.3832 27.1415L66.309 22.9148ZM45.6006 41.8943C40.6571 44.8074 36.648 42.4411 36.648 36.615C36.648 30.7889 40.6411 23.6981 45.6006 20.7769C50.5601 17.8558 54.5452 20.2302 54.5452 26.0563C54.5452 31.8823 50.5361 38.9324 45.6006 41.8536V41.8943Z" fill="#EBEBEB"/>
<path d="M32.7028 17.2356L37.8779 20.2873L33.2299 18.6309L28.0548 15.571L32.7028 17.2356Z" fill="#F0F0F0"/>
<path d="M28.0543 15.5794L23.5009 23.6439L28.6822 26.6979L33.2356 18.6333L28.0543 15.5794Z" fill="#F5F5F5"/>
<path d="M23.4946 23.6328L28.6777 26.6846L32.4073 29.9648L27.2242 26.9212L23.4946 23.6328Z" fill="#E0E0E0"/>
<path d="M25.6269 32.4046L30.81 35.4563L24.8922 39.7075L19.7091 36.6558L25.6269 32.4046Z" fill="#F5F5F5"/>
<path d="M19.7091 36.6558L24.8922 39.7075V47.3124L19.7091 44.2607V36.6558Z" fill="#E0E0E0"/>
<path d="M48.8191 4.96336L43.636 1.91162L37.1991 5.71406L42.3742 8.76581L48.8191 4.96336Z" fill="#F5F5F5"/>
<path d="M115.265 222.869L190.336 178.578C190.501 178.519 190.644 178.408 190.746 178.262C190.847 178.116 190.901 177.941 190.901 177.762C190.901 177.583 190.847 177.408 190.746 177.262C190.644 177.116 190.501 177.006 190.336 176.946L183.396 172.866C182.966 172.645 182.491 172.53 182.01 172.53C181.529 172.53 181.054 172.645 180.624 172.866L105.53 217.117C105.364 217.176 105.221 217.286 105.12 217.433C105.018 217.579 104.964 217.754 104.964 217.933C104.964 218.112 105.018 218.286 105.12 218.433C105.221 218.579 105.364 218.689 105.53 218.749L112.494 222.828C112.92 223.056 113.393 223.178 113.874 223.185C114.356 223.192 114.832 223.084 115.265 222.869Z" fill="#E0E0E0"/>
<path d="M188.275 7.57445L120.584 47.5082C119.577 48.1792 118.74 49.0829 118.139 50.1461C117.538 51.2093 117.191 52.4022 117.126 53.628V217.696C117.126 219.948 118.675 220.862 120.584 219.736L188.275 179.802C189.283 179.133 190.121 178.229 190.722 177.166C191.323 176.102 191.67 174.909 191.733 173.682V9.61438C191.733 7.36229 190.192 6.4484 188.275 7.57445Z" fill="#455A64"/>
<path d="M120.584 47.5083L188.275 7.57448C189.984 6.56267 191.398 7.19097 191.685 8.94532C191.526 7.84232 191.139 6.78637 190.551 5.8469C189.964 4.90744 189.188 4.10576 188.275 3.49461L185.464 1.86266C184.392 1.30715 183.208 1.01764 182.006 1.01764C180.804 1.01764 179.62 1.30715 178.548 1.86266L110.848 41.7638C109.829 42.417 108.988 43.3239 108.405 44.3994L118.14 50.1112C118.723 49.0442 119.564 48.1479 120.584 47.5083Z" fill="#37474F"/>
<path d="M107.374 211.952C107.44 213.177 107.787 214.37 108.388 215.433C108.989 216.497 109.826 217.4 110.832 218.071L113.652 219.703C114.627 220.202 115.695 220.484 116.785 220.532C117.875 220.58 118.963 220.392 119.977 219.981C118.379 220.617 117.11 219.679 117.11 217.663V53.628C117.15 52.397 117.499 51.1971 118.124 50.1438L108.389 44.432C107.772 45.4773 107.424 46.6643 107.374 47.8836V211.952Z" fill="#263238"/>
<path d="M122.444 69.3682L186.438 31.6294C187.588 30.9603 188.515 31.507 188.515 32.8534V154.287C188.476 155.023 188.268 155.739 187.907 156.377C187.547 157.015 187.043 157.557 186.438 157.958L122.468 195.697C121.318 196.375 120.392 195.828 120.392 194.473V73.0401C120.428 72.3065 120.633 71.5919 120.99 70.954C121.346 70.3161 121.844 69.7729 122.444 69.3682Z" fill="white"/>
<path d="M154.429 33.7591C154.076 33.996 153.782 34.3144 153.571 34.6885C153.361 35.0627 153.239 35.4822 153.215 35.9133C153.215 36.7292 153.759 37.0311 154.429 36.6313C154.784 36.3958 155.079 36.0778 155.29 35.7034C155.501 35.3289 155.622 34.9087 155.643 34.4771C155.643 33.6857 155.1 33.3674 154.429 33.7591Z" fill="#37474F"/>
<path d="M154.429 182.634C153.033 183.567 151.872 184.823 151.039 186.3C150.207 187.777 149.727 189.434 149.638 191.136C149.638 194.261 151.786 195.534 154.429 193.968C155.825 193.034 156.986 191.778 157.819 190.301C158.651 188.824 159.132 187.167 159.221 185.465C159.237 182.34 157.081 181.067 154.429 182.634Z" fill="#37474F"/>
<path d="M142.937 46.3904C142.235 46.8664 141.653 47.5043 141.237 48.2527C140.82 49.0011 140.582 49.839 140.541 50.6987C140.541 52.2817 141.627 52.9263 142.937 52.1348C143.646 51.6633 144.237 51.0273 144.66 50.2787C145.083 49.53 145.328 48.6898 145.373 47.8265C145.373 46.2435 144.287 45.5989 142.937 46.3904Z" fill="#37474F"/>
<path d="M148.903 45.8518C148.903 46.9126 149.702 47.3124 150.636 46.7494L166.609 37.3086C167.103 36.9929 167.518 36.5623 167.819 36.0518C168.12 35.5414 168.299 34.9655 168.342 34.3711C168.342 33.3185 167.543 32.9186 166.609 33.4817L150.636 42.9225C150.142 43.2374 149.728 43.6667 149.427 44.1756C149.126 44.6846 148.946 45.2588 148.903 45.8518Z" fill="#37474F"/>
<path d="M112.773 74.6231C113.34 75.0002 113.812 75.5086 114.15 76.1068C114.489 76.7051 114.685 77.3764 114.722 78.0665C114.722 79.3394 113.851 79.8535 112.773 79.217C112.208 78.8384 111.738 78.3296 111.401 77.7315C111.064 77.1334 110.869 76.4627 110.832 75.7736C110.832 74.5088 111.703 73.9948 112.773 74.6231Z" fill="#37474F"/>
<path d="M112.773 89.9471C113.34 90.3243 113.812 90.8326 114.15 91.4308C114.489 92.0291 114.685 92.7005 114.722 93.3905C114.722 94.6552 113.851 95.1693 112.773 94.541C112.208 94.1624 111.738 93.6536 111.401 93.0555C111.064 92.4574 110.869 91.7867 110.832 91.0976C110.832 89.8247 111.703 89.3106 112.773 89.9471Z" fill="#37474F"/>
<path d="M112.166 74.9331C112.733 75.3103 113.205 75.8186 113.543 76.4169C113.882 77.0152 114.078 77.6865 114.115 78.3765C114.115 79.6413 113.244 80.1554 112.166 79.5271C111.599 79.1499 111.128 78.6416 110.789 78.0433C110.45 77.445 110.255 76.7737 110.217 76.0837C110.225 74.8107 111.096 74.3211 112.166 74.9331Z" fill="#455A64"/>
<path d="M112.166 90.249C112.734 90.627 113.206 91.1366 113.545 91.7363C113.884 92.3361 114.079 93.0091 114.115 93.7005C114.115 94.9653 113.244 95.4794 112.166 94.8429C111.598 94.4672 111.125 93.9592 110.786 93.3606C110.448 92.7621 110.253 92.09 110.217 91.3995C110.225 90.1347 111.096 89.6207 112.166 90.249Z" fill="#455A64"/>
<path d="M201.469 36.6966C201.469 35.342 200.542 34.7953 199.392 35.4726L191.733 39.9849L135.422 73.2114C134.817 73.6129 134.314 74.1549 133.953 74.793C133.592 75.4311 133.384 76.1474 133.346 76.8833V198.284C133.346 199.638 134.272 200.185 135.422 199.508L191.757 166.273L199.392 161.769C199.997 161.368 200.5 160.826 200.861 160.188C201.222 159.549 201.43 158.833 201.469 158.097V36.6966Z" fill="white"/>
<path d="M202.267 36.6966C202.317 36.2874 202.248 35.8721 202.069 35.5028C201.889 35.1334 201.607 34.8263 201.258 34.6199C200.908 34.4135 200.507 34.317 200.104 34.3424C199.701 34.3678 199.315 34.514 198.993 34.7627L191.685 39.0792L135.023 72.5342C134.293 73.0047 133.687 73.6494 133.255 74.4127C132.824 75.1761 132.581 76.0352 132.547 76.916V198.284C132.515 198.691 132.592 199.1 132.769 199.466C132.946 199.833 133.217 200.143 133.553 200.365C133.839 200.535 134.165 200.622 134.496 200.618C134.964 200.603 135.42 200.465 135.821 200.218L192.524 166.763L199.815 162.463C200.541 161.988 201.144 161.342 201.575 160.579C202.006 159.817 202.251 158.96 202.291 158.081L202.267 36.6966ZM191.701 165.368L191.046 165.759L135.055 198.79C134.961 198.864 134.852 198.915 134.736 198.941C134.619 198.966 134.499 198.965 134.384 198.937C134.28 198.871 134.176 198.643 134.176 198.268V76.8833C134.218 76.2909 134.39 75.7157 134.681 75.2012C134.971 74.6867 135.372 74.2463 135.853 73.9132L191.789 40.8662L199.775 36.1417C199.87 36.0679 199.979 36.0164 200.095 35.991C200.211 35.9655 200.331 35.9669 200.446 35.9949C200.55 36.0601 200.654 36.2886 200.654 36.664V158.097C200.613 158.69 200.44 159.265 200.15 159.779C199.859 160.294 199.458 160.734 198.977 161.067L191.685 165.368H191.701Z" fill="#BA68C8"/>
<path d="M167.407 64.9048C174.595 60.6781 180.385 64.0889 180.385 72.5668C180.385 81.0448 174.571 91.3342 167.407 95.5283C160.243 99.7224 154.429 96.3443 154.429 87.8745C154.429 79.4047 160.243 69.1397 167.407 64.9048Z" fill="#BA68C8"/>
<path d="M167.407 71.5632C169.731 70.1923 171.616 71.3021 171.616 74.0111C171.537 75.5035 171.115 76.9558 170.383 78.2502C169.652 79.5446 168.632 80.6446 167.407 81.4609C165.083 82.8318 163.198 81.7221 163.198 79.013C163.277 77.5206 163.699 76.0683 164.431 74.7739C165.162 73.4795 166.182 72.3795 167.407 71.5632Z" fill="#BA68C8"/>
<path d="M175.609 86.1854C175.609 81.6812 172.518 79.8535 168.693 82.1056L166.297 83.5172C162.48 85.7693 159.381 91.2526 159.381 95.7568V96.9726C161.593 97.7151 164.372 97.3153 167.367 95.5283C170.685 93.4375 173.49 90.5989 175.569 87.2299L175.609 86.1854Z" fill="#BA68C8"/>
<path opacity="0.7" d="M167.407 71.5632C169.731 70.1923 171.616 71.3021 171.616 74.0111C171.537 75.5035 171.115 76.9558 170.383 78.2502C169.652 79.5446 168.632 80.6446 167.407 81.4609C165.083 82.8318 163.198 81.7221 163.198 79.013C163.277 77.5206 163.699 76.0683 164.431 74.7739C165.162 73.4795 166.182 72.3795 167.407 71.5632Z" fill="white"/>
<path opacity="0.7" d="M175.609 86.1854C175.609 81.6812 172.518 79.8535 168.693 82.1056L166.297 83.5172C162.48 85.7693 159.381 91.2526 159.381 95.7568V96.9726C161.593 97.7151 164.372 97.3153 167.367 95.5283C170.685 93.4375 173.49 90.5989 175.569 87.2299L175.609 86.1854Z" fill="white"/>
<path d="M142.298 114.173L158.998 104.325C159.796 103.876 160.379 104.235 160.379 105.141V105.704C160.354 106.194 160.216 106.671 159.975 107.097C159.735 107.522 159.4 107.883 158.998 108.151L142.298 118C141.54 118.449 140.917 118.082 140.917 117.184V116.621C140.943 116.131 141.081 115.654 141.321 115.229C141.561 114.803 141.896 114.442 142.298 114.173Z" fill="#BA68C8"/>
<path opacity="0.1" d="M142.298 114.173L158.998 104.325C159.796 103.876 160.379 104.235 160.379 105.141V105.704C160.354 106.194 160.216 106.671 159.975 107.097C159.735 107.522 159.4 107.883 158.998 108.151L142.298 118C141.54 118.449 140.917 118.082 140.917 117.184V116.621C140.943 116.131 141.081 115.654 141.321 115.229C141.561 114.803 141.896 114.442 142.298 114.173Z" fill="black"/>
<path d="M141.611 126.062L192.133 96.2627C192.508 96.0342 192.819 96.2137 192.819 96.6707V102.693C192.805 102.937 192.736 103.175 192.617 103.387C192.498 103.599 192.332 103.781 192.133 103.917L141.611 133.716C141.228 133.944 140.917 133.757 140.917 133.308V127.286C140.93 127.041 141 126.802 141.121 126.589C141.242 126.377 141.41 126.196 141.611 126.062Z" fill="#BA68C8"/>
<path opacity="0.2" d="M141.611 126.062L192.133 96.2627C192.508 96.0342 192.819 96.2137 192.819 96.6707V102.693C192.805 102.937 192.736 103.175 192.617 103.387C192.498 103.599 192.332 103.781 192.133 103.917L141.611 133.716C141.228 133.944 140.917 133.757 140.917 133.308V127.286C140.93 127.041 141 126.802 141.121 126.589C141.242 126.377 141.41 126.196 141.611 126.062Z" fill="white"/>
<path d="M142.298 140.962L158.998 131.113C159.796 130.664 160.379 131.031 160.379 131.929V132.492C160.354 132.982 160.216 133.46 159.976 133.886C159.736 134.311 159.401 134.672 158.998 134.94L142.298 144.789C141.54 145.246 140.917 144.878 140.917 143.973V143.41C140.944 142.92 141.083 142.443 141.323 142.018C141.563 141.593 141.897 141.231 142.298 140.962Z" fill="#BA68C8"/>
<path opacity="0.1" d="M142.298 140.962L158.998 131.113C159.796 130.664 160.379 131.031 160.379 131.929V132.492C160.354 132.982 160.216 133.46 159.976 133.886C159.736 134.311 159.401 134.672 158.998 134.94L142.298 144.789C141.54 145.246 140.917 144.878 140.917 143.973V143.41C140.944 142.92 141.083 142.443 141.323 142.018C141.563 141.593 141.897 141.231 142.298 140.962Z" fill="black"/>
<path d="M141.611 152.85L192.133 123.051C192.508 122.823 192.819 123.01 192.819 123.459V129.481C192.805 129.725 192.736 129.963 192.617 130.175C192.498 130.388 192.332 130.569 192.133 130.705L141.611 160.504C141.228 160.733 140.917 160.553 140.917 160.096V154.074C140.93 153.829 141 153.59 141.121 153.378C141.242 153.165 141.41 152.985 141.611 152.85Z" fill="#BA68C8"/>
<path opacity="0.2" d="M141.611 152.85L192.133 123.051C192.508 122.823 192.819 123.01 192.819 123.459V129.481C192.805 129.725 192.736 129.963 192.617 130.175C192.498 130.388 192.332 130.569 192.133 130.705L141.611 160.504C141.228 160.733 140.917 160.553 140.917 160.096V154.074C140.93 153.829 141 153.59 141.121 153.378C141.242 153.165 141.41 152.985 141.611 152.85Z" fill="white"/>
<path d="M161.761 156.269L181.726 144.511C182.525 144.054 183.116 144.421 183.116 145.327V151.627C183.09 152.118 182.95 152.595 182.709 153.021C182.467 153.446 182.131 153.807 181.726 154.074L161.761 165.841C160.962 166.29 160.379 165.922 160.379 165.025V158.717C160.407 158.228 160.546 157.751 160.786 157.326C161.026 156.901 161.36 156.539 161.761 156.269Z" fill="#BA68C8"/>
<path opacity="0.1" d="M161.761 156.269L181.726 144.511C182.525 144.054 183.116 144.421 183.116 145.327V151.627C183.09 152.118 182.95 152.595 182.709 153.021C182.467 153.446 182.131 153.807 181.726 154.074L161.761 165.841C160.962 166.29 160.379 165.922 160.379 165.025V158.717C160.407 158.228 160.546 157.751 160.786 157.326C161.026 156.901 161.36 156.539 161.761 156.269Z" fill="black"/>
<path d="M209.039 129.685C209.039 129.685 199.232 115.862 198.657 114.181C198.202 112.941 198.657 111.097 198.801 110.24C198.945 109.384 199.073 107.474 199.216 106.976C199.456 106.046 198.282 106.234 197.619 107.082C196.956 107.931 196.733 109.628 196.389 109.906C196.046 110.183 193.434 106.291 192.069 104.496C190.703 102.701 189.848 101.607 189.01 102.276C188.411 102.758 188.858 103.802 189.848 105.336C190.427 106.162 190.96 107.02 191.446 107.907C191.597 108.241 190.783 108.266 190.344 108.959C190 109.498 190.344 110.371 189.864 110.787C189.57 111.016 189.367 111.348 189.297 111.72C189.226 112.092 189.292 112.477 189.481 112.802C190.37 114.229 191.517 115.469 192.859 116.458C194.329 117.494 194.92 117.862 195.79 119.273C196.661 120.685 204.471 135.103 204.998 135.968C205.526 136.833 206.54 138.595 208.081 138.644C209.622 138.693 222.241 127.596 222.888 127.041C224.964 125.271 225.627 125.018 225.978 126.609C226.1 127.174 226.19 127.746 226.25 128.322C226.497 130.346 227.847 137.575 227.847 137.575C227.847 137.575 234.236 140.733 239.483 139.207C244.73 137.682 246.503 135.405 246.503 135.405L243.876 131.031C244.586 129.228 247.869 121.917 248.931 116.801L232.479 114.084C232.144 114.01 231.601 113.871 230.882 113.684C229.979 113.439 227.687 112.631 225.954 114.181C220.3 119.216 209.055 129.685 209.055 129.685" fill="#FFA8A7"/>
<path d="M241.655 214.497L238.708 218.683C240.048 219.322 241.511 219.643 242.989 219.622C245.633 219.72 246.359 218.806 246.455 218.626C246.902 217.647 246.208 215.885 246.016 214.367L241.655 214.497Z" fill="#37474F"/>
<path d="M238.876 216.676C238.876 216.676 235.298 216.439 232.831 216.129C230.363 215.819 228.406 217.043 228.981 218.079C229.556 219.116 230.922 219.981 233.046 220.707C234.859 221.335 237.039 221.784 238.924 222.339C240.809 222.894 242.119 223.62 243.213 223.228C244.435 222.796 244.962 222.298 244.858 221.384C244.591 220.084 244.261 218.799 243.868 217.533L238.876 216.676Z" fill="#37474F"/>
<path d="M246.455 210.295C246.455 210.295 246.008 214.098 245.976 214.914C245.944 215.729 242.342 215.991 241.655 214.497L241.544 209.846L246.455 210.295Z" fill="#F28F8F"/>
<path d="M242.829 212.629L244.115 218.406C244.115 218.406 244.235 219.108 241.296 219.556C238.357 220.005 233.741 217.982 232.95 217.574C232.16 217.166 232.072 216.341 234.963 216.505C237.854 216.668 238.876 216.676 238.876 216.676L237.934 214.122L242.829 212.629Z" fill="#FFA8A7"/>
<path d="M248.883 116.752L250.919 116.172C250.919 116.172 255.176 129.938 255.647 131.268C256.118 132.598 256.653 134.001 255.735 135.642C254.641 137.592 248.883 145.433 248.883 145.433L245.225 141.778L249.378 134.01L245.704 126.421L248.883 116.752Z" fill="#F28F8F"/>
<path d="M227.967 98.8738C227.489 97.9581 227.247 96.9336 227.262 95.8962C227.278 94.8588 227.55 93.8422 228.055 92.9417C230.083 89.0985 234.603 87.2299 239.986 87.9398C242.478 88.2743 245.417 90.3877 247.022 93.5455C248.795 97.046 248.963 104.096 249.418 106.764L227.967 98.8738Z" fill="#37474F"/>
<path d="M227.823 100.383C227.823 100.383 226.545 102.872 226.769 103.101C227.1 103.298 227.462 103.436 227.839 103.509L227.823 100.383Z" fill="#FFA8A7"/>
<path d="M231.705 92.5174C230.315 93.4394 227.919 95.1367 227.815 100.726C227.703 106.438 228.502 108.323 229.333 108.984C229.892 109.433 233.174 109.204 234.58 108.87C235.985 108.535 240.034 106.487 241.496 103.378C243.213 99.7224 242.861 94.4023 240.314 92.7703C239.017 91.9869 237.547 91.5527 236.041 91.5085C234.535 91.4642 233.043 91.8114 231.705 92.5174Z" fill="#FFA8A7"/>
<path d="M246.455 135.372C248.915 139.289 251.247 142.716 251.758 147.139C252.812 156.433 249.362 167.057 248.619 173.935C250.016 175.892 250.821 178.224 250.935 180.643C250.935 183.49 246.455 210.295 246.455 210.295C246.455 210.295 243.197 211.307 241.544 209.846L238.469 160.537L240.066 154.531L246.455 135.372Z" fill="#BA68C8"/>
<path opacity="0.2" d="M246.455 135.372C248.915 139.289 251.247 142.716 251.758 147.139C252.812 156.433 249.362 167.057 248.619 173.935C250.016 175.892 250.821 178.224 250.935 180.643C250.935 183.49 246.455 210.295 246.455 210.295C246.455 210.295 243.197 211.307 241.544 209.846L238.469 160.537L240.066 154.531L246.455 135.372Z" fill="black"/>
<path d="M238.469 160.537L240.066 154.531C243.124 153.709 246.074 152.512 248.851 150.966C248.851 150.966 247.19 154.058 242.414 155.755L239.946 163.466L239.739 181.132L238.469 160.537Z" fill="#BA68C8"/>
<path opacity="0.3" d="M238.469 160.537L240.066 154.531C243.124 153.709 246.074 152.512 248.851 150.966C248.851 150.966 247.19 154.058 242.414 155.755L239.946 163.466L239.739 181.132L238.469 160.537Z" fill="black"/>
<path d="M246.455 135.372C247.773 137.575 250.919 141.329 250.248 144.944C249.45 149.317 247.134 152.394 240.09 154.531L233.477 179.011C233.477 179.011 236.919 182.275 237.974 185.432C239.028 188.59 242.829 212.645 242.829 212.645C242.829 212.645 241.647 214.612 237.934 214.138C237.934 214.138 224.988 183.947 224.078 181.981C222.972 179.989 222.585 177.665 222.983 175.412C223.391 172.246 227.775 137.592 227.775 137.592L246.455 135.372Z" fill="#BA68C8"/>
<path opacity="0.2" d="M246.455 135.372C247.773 137.575 250.919 141.329 250.248 144.944C249.45 149.317 247.134 152.394 240.09 154.531L233.477 179.011C233.477 179.011 236.919 182.275 237.974 185.432C239.028 188.59 242.829 212.645 242.829 212.645C242.829 212.645 241.647 214.612 237.934 214.138C237.934 214.138 224.988 183.947 224.078 181.981C222.972 179.989 222.585 177.665 222.983 175.412C223.391 172.246 227.775 137.592 227.775 137.592L246.455 135.372Z" fill="black"/>
<path d="M248.883 116.752L232.431 114.035C232.096 113.961 231.553 113.822 230.834 113.635C230.834 113.635 230.131 124.177 225.906 126.592C226.01 127.098 226.098 127.661 226.178 128.306C226.426 130.33 227.775 137.559 227.775 137.559C227.775 137.559 234.164 140.717 239.411 139.191C244.658 137.665 246.431 135.389 246.431 135.389L243.804 131.015C244.538 129.195 247.845 121.884 248.883 116.752Z" fill="#BA68C8"/>
<path opacity="0.7" d="M248.883 116.752L232.431 114.035C232.096 113.961 231.553 113.822 230.834 113.635C230.834 113.635 230.131 124.177 225.906 126.592C226.01 127.098 226.098 127.661 226.178 128.306C226.426 130.33 227.775 137.559 227.775 137.559C227.775 137.559 234.164 140.717 239.411 139.191C244.658 137.665 246.431 135.389 246.431 135.389L243.804 131.015C244.538 129.195 247.845 121.884 248.883 116.752Z" fill="white"/>
<path d="M244.546 129.277C242.362 130.617 240.072 131.772 237.702 132.729C239.853 132.685 241.96 132.09 243.828 130.999L244.546 129.277Z" fill="#BA68C8"/>
<path d="M231.297 92.7948C231.297 92.7948 230.499 98.0986 232.383 101.216C232.383 101.216 233.086 99.1023 234.835 99.5021C236.584 99.9019 236.68 102.26 235.45 103.582C235.137 103.953 234.729 104.226 234.271 104.37C233.813 104.515 233.325 104.524 232.863 104.398C232.863 104.398 232.583 108.233 232.431 111.448C232.279 114.663 231.449 121.672 234.987 124.504C238.525 127.335 247.405 128.33 251.566 122.39C253.882 119.085 250.808 113.243 249.378 106.691C248.06 100.669 247.318 91.7422 241.064 90.3061C234.811 88.87 231.297 92.7948 231.297 92.7948Z" fill="#37474F"/>
<path d="M254.242 20.3281L252.924 21.1441C253.035 20.6651 253.096 20.1756 253.108 19.6835C253.108 16.95 251.231 15.8484 248.915 17.2356C248.21 17.67 247.581 18.2215 247.054 18.8675C247.054 15.1957 244.53 13.7024 241.416 15.5384C239.774 16.632 238.409 18.1055 237.429 19.8394C236.449 21.5733 235.884 23.5186 235.777 25.5177C235.777 25.7054 235.777 25.8849 235.777 26.0644C234.975 25.9613 234.163 26.1521 233.485 26.603C232.265 27.4155 231.249 28.5106 230.521 29.7993C229.792 31.088 229.372 32.5341 229.293 34.0202C229.292 34.3657 229.327 34.7102 229.396 35.0483L228.694 35.4645C226.785 36.5905 225.236 38.7855 225.236 40.3603C225.236 41.9351 226.785 42.3105 228.694 41.1763L254.25 26.1216C256.158 24.9955 257.708 22.8005 257.708 21.2257C257.708 19.6509 256.15 19.1939 254.242 20.3281Z" fill="#EBEBEB"/>
</svg>
