<svg width="166" height="220" viewBox="0 0 166 220" fill="none" xmlns="http://www.w3.org/2000/svg">
<path fill-rule="evenodd" clip-rule="evenodd" d="M77.1934 23.2021C74.733 20.2498 73.0678 16.6316 73.3461 12.5773C74.1478 0.895786 90.0543 3.46557 93.1484 9.36139C96.2426 15.2572 95.8749 30.2125 91.876 31.2662C90.2812 31.6864 86.8839 30.657 83.4263 28.5265L85.5966 44.2229H72.7818L77.1934 23.2021Z" fill="#B28B67"/>
<path d="M92.3116 7.07524C92.1993 6.36284 92.4216 6.0132 89.6197 4.0062C86.8178 1.9992 82.294 -0.36789 77.7377 0.662279C71.8247 1.9992 69.4761 5.98656 67.1959 7.92504C65.1404 9.67259 63.078 9.87639 61.8557 12.0448C60.6335 14.2132 59.9832 20.4517 61.046 22.9319C62.5121 26.3532 65.4033 27.2746 67.5138 28.2603C71.1334 29.9508 76.2495 28.1654 76.3735 27.8697C77.3322 25.5819 82.4927 19.1283 85.5966 16.4169C87.879 14.4231 92.8386 10.4188 92.3116 7.07524Z" fill="#5C63AB"/>
<mask id="mask0_12_42" style="mask-type:luminance" maskUnits="userSpaceOnUse" x="60" y="0" width="33" height="29">
<path d="M92.3116 7.07524C92.1993 6.36284 92.4216 6.0132 89.6197 4.0062C86.8178 1.9992 82.294 -0.36789 77.7377 0.662279C71.8247 1.9992 69.4761 5.98656 67.1959 7.92504C65.1404 9.67259 63.078 9.87639 61.8557 12.0448C60.6335 14.2132 59.9832 20.4517 61.046 22.9319C62.5121 26.3532 65.4033 27.2746 67.5138 28.2603C71.1334 29.9508 76.2495 28.1654 76.3735 27.8697C77.3322 25.5819 82.4927 19.1283 85.5966 16.4169C87.879 14.4231 92.8386 10.4188 92.3116 7.07524Z" fill="white"/>
</mask>
<g mask="url(#mask0_12_42)">
<path fill-rule="evenodd" clip-rule="evenodd" d="M67.1523 6.55902C68.1135 12.7707 70.6367 18.4517 74.7219 23.6022C69.9584 19.8238 66.8199 14.5406 65.3065 7.75253L67.1523 6.55902ZM64.7717 8.92919C66.3483 15.6028 70.4422 21.9088 77.0534 27.8473C69.4036 23.1269 64.5981 17.0353 62.6367 9.57269L64.7717 8.92919Z" fill="black" fill-opacity="0.2"/>
</g>
<path fill-rule="evenodd" clip-rule="evenodd" d="M69.5837 89.5412L109.26 157.351L139.005 214.678H145.412L95.573 89.5412L69.5837 89.5412Z" fill="#997659"/>
<path fill-rule="evenodd" clip-rule="evenodd" d="M135.088 212.032C134.49 213.662 134.192 214.882 134.192 215.691C134.192 216.675 134.352 218.112 134.673 220C135.79 220 145.828 220 164.789 220C165.571 217.355 165.119 215.927 163.433 215.716C161.747 215.505 160.346 215.315 159.231 215.145L145.234 208.766C144.964 208.643 144.649 208.767 144.529 209.042C144.527 209.047 144.525 209.052 144.523 209.056L143.623 211.288C142.062 212.032 140.794 212.404 139.818 212.404C139.025 212.404 137.93 212.077 136.533 211.422C135.997 211.171 135.363 211.412 135.117 211.96C135.106 211.983 135.097 212.007 135.088 212.032Z" fill="#E4E4E4"/>
<path fill-rule="evenodd" clip-rule="evenodd" d="M130.744 205.498L143.099 201.677C137.686 185.134 131.051 166.928 123.195 147.06C115.339 127.192 106.901 108.019 97.883 89.5412H62.9862C73.0128 112.915 83.6423 134.153 94.8747 153.256C106.107 172.358 118.064 189.773 130.744 205.498Z" fill="#DB2721"/>
<path fill-rule="evenodd" clip-rule="evenodd" d="M66.9762 89.5412C63.2315 113.37 56.0091 143.814 55.3275 144.753C54.8731 145.38 38.5146 150.984 6.25186 161.565L7.63583 167.34C46.109 161.666 66.3811 157.263 68.4521 154.132C71.5586 149.436 87.0697 112.338 93.0775 89.5412H66.9762Z" fill="#B28B67"/>
<path fill-rule="evenodd" clip-rule="evenodd" d="M17.5927 156.572L20.0305 165.874C48.8062 168.454 66.4377 166.59 72.925 160.282C79.4123 153.973 86.8059 130.393 95.1059 89.5412H61.8297C56.5711 122.993 53.6312 140.421 53.01 141.826C52.3888 143.23 40.583 148.145 17.5927 156.572Z" fill="#FF4133"/>
<path fill-rule="evenodd" clip-rule="evenodd" d="M7.72837 159.142C6.07336 158.814 4.86151 158.718 4.09282 158.854C3.15791 159.019 1.82229 159.423 0.0859634 160.064C0.285436 161.191 2.07813 171.317 5.46404 190.443C8.11593 190.788 9.39147 190.092 9.29067 188.356C9.18987 186.619 9.12059 185.174 9.08284 184.021L12.6421 168.828C12.7106 168.536 12.5368 168.238 12.2538 168.163C12.249 168.162 12.2441 168.161 12.2392 168.159L9.95936 167.627C8.97347 166.178 8.39339 164.961 8.21911 163.976C8.07752 163.177 8.1929 162.017 8.56526 160.498C8.70816 159.914 8.36641 159.316 7.80195 159.16C7.77762 159.153 7.75308 159.147 7.72837 159.142Z" fill="#E4E4E4"/>
<path fill-rule="evenodd" clip-rule="evenodd" d="M71.2338 33.4679C71.3585 33.053 71.485 32.6369 71.6134 32.2196L72.0876 32.4477C72.1616 32.3696 72.2361 32.2936 72.3112 32.2196L87.2567 34.582C87.2567 43.1742 93.944 51.2133 98.1745 58.1302C104.751 68.8825 116.453 80.8004 108.95 96.7742C102.189 111.167 84.5802 113.505 56.122 103.786C56.122 96.0339 62.355 88.2403 62.5536 78.8139C62.7427 69.8404 64.384 42.6522 71.2338 33.4679Z" fill="#C1DEE2"/>
<path fill-rule="evenodd" clip-rule="evenodd" d="M89.7991 92.6931C90.7986 87.42 91.447 83.8996 91.7443 82.1319C99.7065 91.33 104.306 95.9824 105.544 96.0891C107.871 96.2898 109.591 94.18 110.08 94.7731C110.89 97.2295 108.604 103.378 104.235 104.272C102.148 104.699 98.9195 100.301 97.5892 98.7421C97.066 98.1291 94.4693 96.1128 89.7991 92.6931ZM103.553 64.579C105.617 64.579 106.725 65.4513 107.946 67.2113C109.166 68.9712 110.321 77.2715 108.362 77.2715C106.402 77.2715 98.193 74.0629 98.193 71.9058C98.193 69.7487 103.795 68.8352 103.795 67.2113C103.795 65.5873 101.489 64.579 103.553 64.579Z" fill="#B28B67"/>
<path fill-rule="evenodd" clip-rule="evenodd" d="M85.6322 100.717C85.5096 101.166 85.3846 101.623 85.2572 102.089C61.8724 85.3805 61.8611 65.1326 68.8159 42.4372C63.5739 64.7802 65.7095 83.6244 85.6322 100.717Z" fill="black" fill-opacity="0.2"/>
</svg>
